<?xml version="1.0" encoding="UTF-8"?>
<svg version="1.1" viewBox="0 0 1600 1600" xmlns="http://www.w3.org/2000/svg">
<path transform="translate(0)" d="m0 0h1600v1600h-1600v-1600z" fill="#FAFEFE"/>
<path transform="translate(908 148)" d="m0 0c14.4 0.785 28.8 0.642 43.3 0.6 3.97-0.0101 7.95-0.0135 11.9-0.0174 10-0.011 20.1-0.0306 30.1-0.051 10.9-0.0221 21.8-0.0426 32.7-0.0534 4.72-0.00498 9.44-0.0148 14.2-0.0284 2.92-0.00744 5.84-0.0108 8.76-0.013 2-0.00278 4.01-0.0106 6.01-0.0185 1.18-7.05e-5 2.37-1.41e-4 3.59-2.14e-4 1.55-0.00333 1.55-0.00333 3.13-0.00673 2.44 0.12 2.44 0.12 4.44 1.12l1-2c4.4 0.118 8.79 0.242 13.2 0.372 1.5 0.0434 2.99 0.0851 4.49 0.125 2.15 0.0576 4.29 0.121 6.44 0.186 1.29 0.0367 2.59 0.0733 3.92 0.111 2.96 0.205 2.96 0.205 3.96 1.21 0.237 2.53 0.422 5.03 0.562 7.56 0.0648 1.07 0.0648 1.07 0.131 2.15 0.106 1.76 0.207 3.52 0.307 5.28 3.29 1.1 5.74 1.1 9.19 1.06 1.09-0.00902 2.17-0.018 3.29-0.0273 0.831-0.0116 1.66-0.0232 2.52-0.0352 2.74 5.02 2.15 10.1 1.98 15.6-0.0523 2.27-0.105 4.55-0.157 6.82-0.0319 1.22-0.0638 2.44-0.0967 3.7-0.171 6.67-0.302 13.3-0.426 20-0.0137 0.721-0.0273 1.44-0.0414 2.19-0.373 20.1-0.38 40.3-0.38 60.4-7.26e-4 2.94-0.00389 5.88-0.00774 8.82-0.00581 4.66-0.00626 9.32-0.00217 14 9.15e-4 1.73 2.68e-4 3.47-2e-3 5.2-0.00253 2.38 0.00124 4.76 0.0068 7.14-0.00203 0.703-0.00405 1.41-0.00614 2.13-0.0279 3.64-0.0279 3.64 1.14 7.04 0.0164 2.25-0.036 4.51-0.121 6.76-0.0236 0.663-0.0472 1.33-0.0715 2.01-0.0766 2.12-0.161 4.24-0.245 6.36-0.0532 1.44-0.106 2.87-0.158 4.31-0.128 3.52-0.267 7.04-0.404 10.6h-17v17c-12.9 0.156-25.7 0.304-38.6 0.443-5.98 0.0646-12 0.132-17.9 0.205-25.1 0.307-50.3 0.54-75.4-0.358-0.772-0.0258-1.54-0.0517-2.34-0.0783-2.04-0.0697-4.08-0.148-6.12-0.227-3.68 0.0151-6.99 0.408-10.6 1.01l1 3c0.069 2.06 0.0847 4.13 0.0625 6.19-0.00902 1.09-0.018 2.17-0.0273 3.29-0.0174 1.25-0.0174 1.25-0.0352 2.52-8.59 0.64-17 1.23-25.6 0.5-5.48-0.456-10.8-0.501-16.2-0.188-0.697 0.0348-1.39 0.0696-2.11 0.105-1.68 0.115-3.35 0.338-5.01 0.582-1.53 3.06-1.1 6.27-1.06 9.62l0.0625 7.38-15-1c-1.44 2.87-1.12 5.32-1.11 8.54-1.49e-4 0.68-2.98e-4 1.36-4.51e-4 2.06 6.97e-4 2.29 0.00855 4.58 0.0163 6.87 0.00192 1.64 0.00338 3.28 0.00443 4.91 0.00317 3.54 0.00945 7.08 0.0181 10.6 0.0135 5.62 0.0194 11.2 0.0241 16.9 0.0121 13 0.0339 26 0.0562 39 0.0203 11.8 0.0384 23.7 0.0482 35.5 0.00411 4.66 0.0103 9.32 0.0217 14 0.0128 5.24 0.0206 10.5 0.0225 15.7 5.47e-4 1.24 5.47e-4 1.24 0.0011 2.5-0.00338 12-0.236 24-0.834 36-0.343 7.55 2.66e-4 14.9 0.735 22.4 1.1 0.00635 1.1 0.00635 2.22 0.0128 18.1 0.105 36.3 0.214 54.4 0.327 8.77 0.0543 17.5 0.108 26.3 0.158 34.7 0.2 69.3 0.42 104 0.945 2.04 0.0304 4.08 0.059 6.12 0.0872 3.71 0.0527 7.42 0.112 11.1 0.174 1.1 0.0149 2.19 0.0299 3.32 0.0452 0.985 0.0181 1.97 0.0363 2.99 0.055 0.857 0.0138 1.71 0.0277 2.6 0.042 1.93 0.154 1.93 0.154 2.93 1.15 1.31 12.1 1.13 24.3 1.1 36.4-0.00187 1.91-0.00329 3.81-0.00429 5.72-0.00378 4.96-0.0136 9.92-0.0247 14.9-0.0103 5.08-0.0148 10.2-0.0198 15.2-0.0106 9.93-0.0277 19.9-0.0488 29.8l-2-2c-2.37-0.301-4.74-0.495-7.12-0.625-1.28-0.0748-2.56-0.15-3.88-0.227-0.987-0.049-1.97-0.098-2.99-0.148 0.0116 1.18 0.0232 2.36 0.0352 3.58 0.00938 1.56 0.0185 3.11 0.0273 4.67 0.00838 0.777 0.0168 1.55 0.0254 2.36 0.00322 0.754 0.00645 1.51 0.00977 2.29 0.00524 0.691 0.0105 1.38 0.0159 2.09-0.114 2.01-0.114 2.01-0.615 3.84-0.548 2.38-0.612 4.48-0.597 6.93 0.0033 0.943 0.00661 1.89 0.01 2.86 0.0083 1.02 0.0166 2.04 0.0251 3.09 0.00379 1.07 0.00757 2.14 0.0115 3.24 0.0162 4.56 0.0438 9.12 0.0715 13.7 0.0186 3.34 0.0322 6.68 0.042 10 0.00322 1.1 0.00645 2.2 0.00977 3.34-0.0052 8.88-0.316 17.7-0.804 26.6-0.0726 1.4-0.0726 1.4-0.147 2.83-0.0471 0.82-0.0943 1.64-0.143 2.48-0.0846 2.31-0.0846 2.31 1.02 5.12-0.0906 2.74-0.239 5.45-0.438 8.19-0.561 8.62-0.668 17.2-0.562 25.8-2.31 0.194-4.62 0.38-6.94 0.562-1.29 0.104-2.58 0.209-3.9 0.316-1.04 0.04-2.09 0.0799-3.16 0.121l-1-1c-0.17 1.87-0.336 3.75-0.5 5.62-0.0928 1.04-0.186 2.09-0.281 3.16-0.21 3.08-0.256 6.12-0.219 9.21-1.05-0.0838-2.11-0.168-3.19-0.254-8.77-0.638-17.2-0.719-25.9 0.0977-2.88 0.156-2.88 0.156-4.88-0.844-3.01-0.0997-5.99-0.14-9-0.133-0.911-9.57e-4 -1.82-0.00191-2.76-0.0029-1.94-6.82e-4 -3.88 0.00117-5.82 0.00534-2.91 0.00526-5.82 1.05e-4 -8.73-0.00635-9.17-0.00305-18.3 0.153-27.4 0.776-7.67 0.5-15.3 0.511-23 0.491-2.46-0.00545-4.93 3.62e-5 -7.39 0.00635-1.59-6.59e-4 -3.18-0.00194-4.77-0.00391-0.725 0.00202-1.45 0.00405-2.2 0.00613-4.07-0.0187-7.89-0.382-11.9-1.14-7.81-0.453-15.7 0.218-23.5 0.642-6.85 0.359-13.7 0.471-20.5 0.358-2.09 5.16-2.28 9.59-2.24 15-0.00201 0.906-0.00402 1.81-0.00609 2.74-0.0043 3.04 0.00571 6.09 0.0156 9.13-1.56e-4 2.2-0.00119 4.4-0.00304 6.6-0.00254 6.06 0.00742 12.1 0.0193 18.2 0.00958 5.86 0.00975 11.7 0.0101 17.6 0.00102 12 0.0112 24 0.0265 36 0.0151 11.9 0.0255 23.8 0.0301 35.7 4.24e-4 1.11 4.24e-4 1.11 8.56e-4 2.25 0.0014 3.77 0.00272 7.53 0.00399 11.3 0.0091 26.7 0.0267 53.4 0.05 80.1 0.00141 1.61 0.00281 3.23 0.00422 4.84 6.98e-4 0.8 0.0014 1.6 0.00211 2.42 0.00353 4.05 0.00705 8.09 0.0106 12.1 6.98e-4 0.802 0.0014 1.6 0.00212 2.43 0.0161 18.6 0.0298 37.1 0.0425 55.7 5.46e-4 0.794 0.00109 1.59 0.00165 2.41 0.0125 18.2 0.0237 36.3 0.0326 54.5 3.75e-4 0.767 7.51e-4 1.53 0.00114 2.32 0.00337 6.9 0.00669 13.8 0.00975 20.7 0.00761 17.1 0.0181 34.3 0.0362 51.4 0.0126 12 0.0218 23.9 0.0276 35.9 0.00324 6.47 0.00823 12.9 0.0178 19.4 0.0102 7.05 0.0154 14.1 0.0145 21.2-7.85e-5 1.09-1.57e-4 2.18-2.38e-4 3.31-0.01 16.3-0.269 32.5-0.843 48.8-0.0246 0.738-0.0491 1.48-0.0744 2.24-0.0662 1.96-0.139 3.92-0.212 5.88-0.299 2.66-0.299 2.66 1.02 3.75 0.0991 2.33 0.13 4.67 0.125 7 0.00258 1.28 0.00516 2.56 0.00781 3.88-0.133 3.12-0.133 3.12-1.13 4.12-2.98 0.1-5.94 0.134-8.92 0.127-1.42 0.00234-1.42 0.00234-2.87 0.00473-3.2 0.00401-6.4 8.19e-4 -9.6-0.00232-2.28 0.00135-4.57 0.00313-6.85 0.00531-6.22 0.00458-12.4 0.00278-18.7-3.79e-4 -6.5-0.00252-13-1.86e-4 -19.5 0.00139-11.6 0.00194-23.2-0.00118-34.8-0.00626-10.5-0.00447-21.1-0.00369-31.6 9.19e-4 -12.2 0.00535-24.4 0.00735-36.7 0.00439-6.48-0.00156-13-0.00176-19.4 0.00154-6.09 0.00288-12.2 9.05e-4 -18.3-0.00489-2.24-0.00133-4.48-9.32e-4 -6.72 0.00126-3.05 0.00271-6.09-6.66e-4 -9.14-0.00568-1.35 0.00335-1.35 0.00335-2.72 0.00676-6.08-0.0196-6.08-0.0196-7.2-1.13-0.099-1.98-0.13-3.96-0.125-5.94-0.00258-1.08-0.00516-2.16-0.00781-3.28 0.133-2.79 0.133-2.79 1.13-4.79l-1-3c-0.0912-1.36-0.129-2.73-0.131-4.1-0.00368-0.84-0.00736-1.68-0.0112-2.54 0.00153-1.39 0.00153-1.39 0.0031-2.8-0.00284-0.984-0.00568-1.97-0.00861-2.98-0.00839-3.33-0.00962-6.66-0.0109-9.99-0.00456-2.4-0.00956-4.8-0.015-7.2-0.0108-5.23-0.0184-10.5-0.0234-15.7-0.0074-7.78-0.0205-15.6-0.0347-23.3-0.0238-13.1-0.043-26.2-0.0596-39.3-0.0164-13-0.0349-25.9-0.0561-38.9-0.00132-0.805-0.00264-1.61-0.00399-2.44-0.0067-4.09-0.0134-8.18-0.0202-12.3-0.0478-29-0.091-58-0.131-86.9-0.0393-28.2-0.0808-56.3-0.125-84.5-0.00136-0.868-0.00273-1.74-0.00413-2.63-0.0137-8.71-0.0274-17.4-0.0412-26.1-0.028-17.8-0.0558-35.5-0.0833-53.3-0.00127-0.816-0.00254-1.63-0.00384-2.47-0.0847-54.5-0.163-109-0.24-164-2.84-0.173-5.68-0.342-8.51-0.508-0.793-0.0488-1.59-0.0976-2.4-0.148-6.32-0.366-12.6-0.336-18.9-0.0566-28.2 1.17-56.4 0.659-84.6 0.396-5.82-0.0537-11.6-0.0988-17.5-0.142-6.35-0.0472-12.7-0.0999-19.1-0.155-2.68-0.0233-5.36-0.0447-8.04-0.0645-3.7-0.0286-7.41-0.0635-11.1-0.1-1.11-0.00733-2.21-0.0147-3.35-0.0222-0.998-0.0112-2-0.0225-3.02-0.034-0.872-0.00775-1.74-0.0155-2.64-0.0235-1.97-0.141-1.97-0.141-2.97-1.14-0.0487-2.51-0.042-4.99 0-7.5 0.074-7.11-0.192-14.1-0.732-21.2-0.125-1.75-0.201-3.51-0.268-5.27l1-1c0.0934-2.71 0.121-5.4 0.107-8.11-8.35e-4 -1.29-8.35e-4 -1.29-0.00169-2.61-0.00306-2.91-0.0133-5.81-0.0233-8.72-0.00355-2.07-0.00664-4.15-0.00929-6.22-0.00657-4.48-0.0161-8.96-0.0279-13.4-0.0182-7.07-0.0279-14.1-0.0359-21.2-0.0242-20.1-0.0601-40.2-0.105-60.4-0.0245-11.1-0.0419-22.2-0.0516-33.3-0.00656-7.04-0.0221-14.1-0.0443-21.1-0.0117-4.37-0.0151-8.75-0.0161-13.1-0.00215-2.03-0.00777-4.07-0.017-6.1-0.0121-2.77-0.012-5.54-0.00883-8.31-0.00651-0.812-0.013-1.62-0.0197-2.46 0.0174-3.84 0.0726-5.63 2.25-8.91 3.13-0.258 3.13-0.258 7.12-0.125 5.99 0.138 11.9 0.0379 17.9-0.375 0.7-0.0479 1.4-0.0957 2.12-0.145 1.63-0.114 3.25-0.234 4.88-0.355v2l2-1c1.45-0.0899 2.91-0.118 4.36-0.114 0.918 7.05e-5 1.84 1.41e-4 2.78 2.14e-4 1.01 0.00517 2.02 0.0103 3.06 0.0157 1.59 0.00219 1.59 0.00219 3.22 0.00443 2.32 0.00382 4.63 0.00994 6.95 0.0181 3.68 0.0128 7.36 0.0193 11 0.0241 9.16 0.0134 18.3 0.0374 27.5 0.0614 7.71 0.0199 15.4 0.0355 23.1 0.0456 3.6 0.00641 7.19 0.0189 10.8 0.0317 10.7 0.0231 21.3-0.0274 32-0.774 7.46-0.499 14.8 0.0193 22.2 0.686l1-3 2 2c2.37 0.301 4.74 0.495 7.12 0.625 1.28 0.0748 2.56 0.15 3.88 0.227 0.987 0.049 1.97 0.098 2.99 0.148-0.0838-1.1-0.168-2.2-0.254-3.33-0.103-1.49-0.206-2.99-0.309-4.48-0.0561-0.719-0.112-1.44-0.17-2.18-0.27-4.09-0.226-7.97 0.219-12 0.58-6.07 0.642-12.1 0.614-18.2-0.00126-1.18-0.00252-2.36-0.00383-3.58-0.00442-3.24-0.0133-6.49-0.0242-9.73-0.0106-3.51-0.0151-7.02-0.0203-10.5-0.00968-6.07-0.0227-12.1-0.0377-18.2-0.0234-9.59-0.0364-19.2-0.0477-28.8-4e-3 -3.29-0.00807-6.57-0.0122-9.86-0.00102-0.821-0.00204-1.64-0.00309-2.49-0.0117-9.32-0.0256-18.6-0.0404-28-0.00203-1.28-0.00203-1.28-0.0041-2.58-0.0222-13.8-0.0521-27.7-0.0839-41.5-0.0323-14.2-0.0532-28.4-0.0643-42.6-0.00723-8.76-0.024-17.5-0.0528-26.3-0.0189-5.99-0.0271-12-0.0266-18-6.32e-5 -3.46-0.00513-6.92-0.0232-10.4-0.017-3.75-0.0158-7.49-0.00988-11.2-0.00942-1.1-0.0188-2.21-0.0285-3.34 0.00536-0.997 0.0107-1.99 0.0162-3.02-0.00168-0.865-0.00336-1.73-0.00509-2.62 0.123-0.685 0.245-1.37 0.371-2.08 4.34-2.89 8.67-2.45 13.6-1.49 1.17 0.242 1.17 0.242 2.37 0.49-0.0105-0.923-0.0209-1.85-0.0317-2.8-0.0341-3.43-0.0592-6.85-0.0781-10.3-0.0101-1.48-0.0237-2.97-0.041-4.45-0.0243-2.13-0.0356-4.26-0.0444-6.4-0.0105-1.28-0.0209-2.57-0.0317-3.89 0.227-3.19 0.227-3.19 2.23-6.19 2.61-0.384 5.01-0.603 7.62-0.688 0.706-0.0342 1.41-0.0683 2.14-0.104 1.74-0.0825 3.49-0.147 5.23-0.209-0.0232-0.987-0.0464-1.97-0.0703-2.99-0.018-1.28-0.0361-2.56-0.0547-3.88-0.0232-1.28-0.0464-2.55-0.0703-3.87 0.195-3.26 0.195-3.26 2.2-5.26 2.58-0.145 5.05-0.187 7.62-0.125 1.06 0.0135 1.06 0.0135 2.14 0.0273 1.74 0.0236 3.49 0.0595 5.23 0.0977-0.161-0.753-0.322-1.51-0.488-2.28-1.07-5.67-0.67-9.32 1.49-14.7h15l-0.0625-6.88c-0.0625-6.88-0.0625-6.88 1.06-9.12h16l-1-16c3.62-1.21 6.93-1.11 10.7-1.06 1.05 0.00677 1.05 0.00677 2.13 0.0137 1.73 0.0118 3.46 0.0297 5.19 0.0488-0.0232-1.06-0.0464-2.12-0.0703-3.21-0.0188-1.39-0.037-2.78-0.0547-4.16-0.0168-0.699-0.0335-1.4-0.0508-2.12-0.0177-1.84 0.0727-3.67 0.176-5.51 2-2 2-2 5.07-2.23 1.29 0.0105 2.58 0.0209 3.9 0.0317 0.685 0.00283 1.37 0.00566 2.08 0.00858 2.19 0.0112 4.38 0.0363 6.57 0.0617 1.48 0.01 2.97 0.0192 4.45 0.0273 3.64 0.0204 7.28 0.0595 10.9 0.0977v-15c3.01-1.51 5.77-1.05 9.12-1 5.71 0.057 11.4-0.0884 17.1-0.5 6.07-0.43 12.1-0.561 18.1-0.438 2.61 0.0404 2.61 0.0404 4.84-0.625 1.83-0.438 1.83-0.438 4.83 0.562 2.23 0.0694 4.46 0.0846 6.69 0.0625 1.18-0.00902 2.36-0.018 3.57-0.0273 1.36-0.0174 1.36-0.0174 2.74-0.0352 0.0538-2.29 0.0927-4.58 0.125-6.88 0.0348-1.91 0.0348-1.91 0.0703-3.87 0.161-3.34 0.161-3.34-2.2-5.26 1.27 0.0116 2.54 0.0232 3.85 0.0352 7.89 0.0486 15.7 0.0861 23.6-0.598 5.56-0.431 10.9-0.319 16.4 0.0312z" fill="#090A0C"/>
<path transform="translate(467,848)" d="m0 0 1 2c4.29-0.66 8.58-1.32 13-2l1 2 2-1c2.15-0.0944 4.31-0.122 6.47-0.12 1.01-0.00128 1.01-0.00128 2.03-0.00259 2.26-0.00165 4.52 0.00386 6.78 0.00932 1.62 2.82e-4 3.23 1.24e-4 4.85-4.43e-4 4.4-2.88e-4 8.79 0.00561 13.2 0.0126 4.59 0.00624 9.18 0.00684 13.8 0.00803 8.7 0.00311 17.4 0.0113 26.1 0.0213 9.9 0.0112 19.8 0.0167 29.7 0.0217 20.4 0.0105 40.7 0.0281 61.1 0.0503v2l2 1c-0.0174 1.28-0.0174 1.28-0.0352 2.59-0.00902 1.1-0.018 2.21-0.0273 3.35-0.0174 1.65-0.0174 1.65-0.0352 3.34-0.215 2.64-0.215 2.64 1.1 3.72 3.33 0.245 6.66 0.384 10 0.523 0.991 0.157 1.98 0.315 3 0.477 2.65 3.98 2.27 7.42 2.24 12 0.00201 0.941 0.00402 1.88 0.00609 2.85 0.00432 3.18-0.00573 6.37-0.0156 9.55 1.56e-4 2.29 0.00119 4.59 0.00304 6.88 0.00254 6.33-0.00743 12.7-0.0193 19-0.0105 6.12-0.00975 12.2-0.0101 18.4-0.00102 12.5-0.0112 25-0.0265 37.6-0.0151 12.4-0.0255 24.8-0.0301 37.2-2.83e-4 0.772-5.65e-4 1.54-8.56e-4 2.34-0.0014 3.92-0.00272 7.84-0.00399 11.8-0.0091 27.8-0.0267 55.6-0.05 83.4-0.00141 1.68-0.00281 3.36-0.00422 5.04-6.98e-4 0.833-0.0014 1.67-0.00211 2.52-0.00353 4.21-0.00705 8.43-0.0106 12.6-0.00105 1.25-0.00105 1.25-0.00212 2.53-0.0162 19.4-0.0298 38.7-0.0425 58.1-5.46e-4 0.829-0.00109 1.66-0.00165 2.51-0.0125 18.9-0.0237 37.9-0.0326 56.8-3.75e-4 0.798-7.51e-4 1.6-0.00114 2.42-0.00337 7.18-0.00669 14.4-0.00975 21.5-0.00763 17.9-0.0182 35.7-0.0362 53.6-0.0125 12.5-0.0218 24.9-0.0276 37.4-0.00326 6.75-0.00832 13.5-0.0178 20.2-0.00869 6.19-0.0127 12.4-0.013 18.6-9.59e-4 2.23-0.00361 4.46-0.0082 6.69-0.021 10.6 0.0593 21.2 0.558 31.8 0.0582 1.28 0.0582 1.28 0.118 2.59-0.141 3.81-0.141 3.81 1.44 7 2.57 0.0854 5.11 0.105 7.68 0.0823 0.813-0.00323 1.63-0.00646 2.47-0.00979 2.75-0.0121 5.49-0.0315 8.24-0.0508 1.96-0.0101 3.92-0.0198 5.88-0.0291 5.34-0.0265 10.7-0.0593 16-0.0931 5.57-0.0343 11.1-0.0629 16.7-0.0921 10.6-0.0562 21.1-0.118 31.7-0.181 12-0.0716 24-0.138 36.1-0.203 24.7-0.135 49.5-0.277 74.2-0.424v2c0.99-0.33 1.98-0.66 3-1 1.89-0.0685 3.79-0.0848 5.69-0.0625 0.994 0.00902 1.99 0.018 3.01 0.0273 0.759 0.0116 1.52 0.0232 2.3 0.0352v2h2c0.0269 2.31 0.0463 4.62 0.0625 6.94 0.0174 1.93 0.0174 1.93 0.0352 3.9-0.0977 3.16-0.0977 3.16-1.1 4.16-2.98 0.1-5.94 0.134-8.92 0.127-0.948 0.00156-1.9 0.00312-2.87 0.00473-3.2 0.00401-6.4 8.19e-4 -9.6-0.00232-2.28 0.00135-4.57 0.00313-6.85 0.00531-6.22 0.00458-12.4 0.00278-18.7-3.79e-4 -6.5-0.00252-13-1.86e-4 -19.5 0.00139-11.6 0.00194-23.2-0.00118-34.8-0.00626-10.5-0.00447-21.1-0.00369-31.6 9.19e-4 -12.2 0.00535-24.4 0.00735-36.7 0.00439-6.48-0.00156-13-0.00176-19.4 0.00154-6.09 0.00288-12.2 9.05e-4 -18.3-0.00489-2.24-0.00133-4.48-9.32e-4 -6.72 0.00126-3.05 0.00271-6.09-6.66e-4 -9.14-0.00568-0.899 0.00223-1.8 0.00446-2.72 0.00676-6.08-0.0196-6.08-0.0196-7.2-1.13-0.099-1.98-0.13-3.96-0.125-5.94-0.00258-1.08-0.00516-2.16-0.00781-3.28 0.133-2.79 0.133-2.79 1.13-4.79l-1-3c-0.0912-1.36-0.129-2.73-0.131-4.1-0.00368-0.84-0.00736-1.68-0.0112-2.54 0.00153-1.39 0.00153-1.39 0.0031-2.8-0.00284-0.984-0.00568-1.97-0.00861-2.98-0.00839-3.33-0.00962-6.66-0.0109-9.99-0.00456-2.4-0.00956-4.8-0.015-7.2-0.0108-5.23-0.0184-10.5-0.0234-15.7-0.0074-7.78-0.0205-15.6-0.0347-23.3-0.0238-13.1-0.043-26.2-0.0596-39.3-0.0164-13-0.0349-25.9-0.0561-38.9-0.00132-0.805-0.00264-1.61-0.00399-2.44-0.0067-4.09-0.0134-8.18-0.0202-12.3-0.0478-29-0.091-58-0.131-86.9-0.0393-28.2-0.0808-56.3-0.125-84.5-0.00136-0.868-0.00273-1.74-0.00413-2.63-0.0137-8.71-0.0274-17.4-0.0412-26.1-0.028-17.8-0.0558-35.5-0.0833-53.3-0.00127-0.816-0.00254-1.63-0.00384-2.47-0.0847-54.5-0.163-109-0.24-164-2.84-0.173-5.68-0.342-8.51-0.508-0.793-0.0488-1.59-0.0976-2.4-0.148-6.32-0.366-12.6-0.336-18.9-0.0566-28.2 1.17-56.4 0.659-84.6 0.396-5.82-0.0537-11.6-0.0988-17.5-0.142-6.35-0.0472-12.7-0.0999-19.1-0.155-2.68-0.0233-5.36-0.0447-8.04-0.0645-3.7-0.0286-7.41-0.0635-11.1-0.1-1.11-0.00733-2.21-0.0147-3.35-0.0222-0.998-0.0112-2-0.0225-3.02-0.034-0.872-0.00775-1.74-0.0155-2.64-0.0235-1.97-0.141-1.97-0.141-2.97-1.14-0.0996-2.29-0.13-4.58-0.125-6.88-0.00258-1.26-0.00516-2.51-0.00781-3.8 0.133-3.32 0.133-3.32 1.13-6.32z" fill="#65666B"/>
<path transform="translate(650,1118)" d="m0 0h1c0.00809 0.836 0.0162 1.67 0.0245 2.53 0.0781 7.9 0.165 15.8 0.263 23.7 0.0498 4.06 0.0962 8.12 0.134 12.2 0.037 3.92 0.0834 7.85 0.136 11.8 0.0185 1.49 0.0336 2.99 0.0453 4.48 0.017 2.1 0.0461 4.2 0.0778 6.3 0.0133 1.19 0.0266 2.38 0.0404 3.61 0.306 3.76 1.13 6.84 2.28 10.4l3-1c1.34 0.986 2.68 1.99 4 3 1.66 0.379 3.32 0.718 5 1-0.00138 1.77-0.00138 1.77-0.00279 3.57-0.0217 28-0.0382 56.1-0.0483 84.1-0.00125 3.46-0.00254 6.92-0.00387 10.4-3.93e-4 1.03-3.93e-4 1.03-7.95e-4 2.09-0.00434 11.1-0.0122 22.2-0.0214 33.3-0.00939 11.4-0.0148 22.8-0.0169 34.3-0.0013 6.41-0.00432 12.8-0.0116 19.2-0.00685 6.04-0.00887 12.1-0.00738 18.1-2.72e-4 2.2-0.00222 4.41-0.0061 6.61-0.0177 10.6 0.0655 21.2 0.564 31.7 0.0388 0.855 0.0776 1.71 0.118 2.59-0.142 3.81-0.142 3.81 1.44 7 2.57 0.0854 5.11 0.105 7.68 0.0823 0.813-0.00323 1.63-0.00646 2.47-0.00979 2.75-0.0121 5.49-0.0315 8.24-0.0508 1.96-0.0101 3.92-0.0198 5.88-0.0291 5.34-0.0265 10.7-0.0593 16-0.0931 5.57-0.0343 11.1-0.0629 16.7-0.0921 10.6-0.0562 21.1-0.118 31.7-0.181 12-0.0716 24-0.138 36.1-0.203 24.7-0.135 49.5-0.277 74.2-0.424v2c0.99-0.33 1.98-0.66 3-1 1.89-0.0685 3.79-0.0848 5.69-0.0625 0.994 0.00902 1.99 0.018 3.01 0.0273 1.14 0.0174 1.14 0.0174 2.3 0.0352v2h2c0.0269 2.31 0.0463 4.62 0.0625 6.94 0.0116 1.29 0.0232 2.58 0.0352 3.9-0.0977 3.16-0.0977 3.16-1.1 4.16-2.98 0.1-5.94 0.134-8.92 0.127-0.948 0.00156-1.9 0.00312-2.87 0.00473-3.2 0.00401-6.4 8.19e-4 -9.6-0.00232-2.28 0.00135-4.57 0.00313-6.85 0.00531-6.22 0.00458-12.4 0.00278-18.7-3.79e-4 -6.5-0.00252-13-1.86e-4 -19.5 0.00139-11.6 0.00194-23.2-0.00118-34.8-0.00626-10.5-0.00447-21.1-0.00369-31.6 9.19e-4 -12.2 0.00535-24.4 0.00735-36.7 0.00439-6.48-0.00156-13-0.00176-19.4 0.00154-6.09 0.00288-12.2 9.05e-4 -18.3-0.00489-2.24-0.00133-4.48-9.32e-4 -6.72 0.00126-3.05 0.00271-6.09-6.66e-4 -9.14-0.00568-0.899 0.00223-1.8 0.00446-2.72 0.00676-6.08-0.0196-6.08-0.0196-7.2-1.13-0.099-1.98-0.13-3.96-0.125-5.94-0.00258-1.08-0.00516-2.16-0.00781-3.28 0.133-2.79 0.133-2.79 1.13-4.79l-1-3c-0.0903-1.43-0.126-2.87-0.126-4.31-0.00261-0.885-0.00522-1.77-0.0079-2.68 0.00223-0.973 0.00446-1.95 0.00676-2.95-0.00156-1.03-0.00312-2.07-0.00473-3.13-0.00401-3.49-8.21e-4 -6.97 0.00232-10.5-0.00135-2.49-0.00314-4.99-0.00531-7.48-0.0041-6.1-0.00348-12.2-5.87e-4 -18.3 0.00227-4.99 0.00256-9.99 0.00148-15-1.53e-4 -0.713-3.06e-4 -1.43-4.64e-4 -2.16-3.2e-4 -1.45-6.44e-4 -2.9-9.73e-4 -4.35-0.00286-13.6 4.32e-4 -27.3 0.0058-40.9 0.00441-11.6 0.00374-23.1-9.19e-4 -34.7-0.00544-13.5-0.0074-27-0.00439-40.5 3.18e-4 -1.46 6.33e-4 -2.93 9.43e-4 -4.39 1.54e-4 -0.72 3.09e-4 -1.44 4.68e-4 -2.18 8.41e-4 -4.92-5.63e-4 -9.84-0.00295-14.8-0.018-40.6 0.411-81.2 1.14-122z" fill="#4A494D"/>
<path transform="translate(884,866)" d="m0 0h14c5.41 10.8 2.14 30.5 2.13 42.3 0.00102 2.6 0.00237 5.21 4e-3 7.81 0.0029 6.42-4.93e-4 12.8-0.00625 19.3-0.00469 5.3-0.00706 10.6-0.00825 15.9-0.0256 95.9-0.611 192-1.12 288-2.47-1.15-4.05-2.05-6-4-2.96-1.24-2.96-1.24-6-2l-2 1-2-5h-1c-0.0458-45.2-0.081-90.5-0.102-136-0.0025-5.34-0.00509-10.7-0.00773-16-5.25e-4 -1.06-0.00105-2.13-0.00159-3.22-0.00871-17.2-0.0245-34.4-0.0429-51.6-0.0187-17.7-0.0298-35.3-0.0339-53-0.00275-10.9-0.0114-21.8-0.0277-32.7-0.0106-7.47-0.0138-14.9-0.0112-22.4 0.00128-4.31-7.02e-4 -8.63-0.0114-12.9-0.00973-3.95-0.0102-7.9-0.00339-11.8 8.45e-4 -1.43-0.00169-2.86-0.00797-4.28-0.0545-13.2-0.0545-13.2 2.25-19.3z" fill="#DEE1E3"/>
<path transform="translate(867,1160)" d="m0 0h2l1 2c3.46-0.495 3.46-0.495 7-1l1 4h2l1 7h2c0.023 29.9 0.0406 59.9 0.0511 89.8 0.00125 3.56 0.00254 7.11 0.00387 10.7 2.62e-4 0.708 5.25e-4 1.42 7.95e-4 2.14 0.00432 11.4 0.0122 22.7 0.0214 34.1 0.00945 11.7 0.0149 23.4 0.0169 35.2 0.00123 6.56 0.00426 13.1 0.0116 19.7 0.0313 28.8-0.126 57.6-1.11 86.5h-15c-1.22-2.44-1.13-4-1.13-6.73-0.00261-1-0.00522-2.01-0.0079-3.04 0.00223-1.11 0.00446-2.22 0.00676-3.36-0.00156-1.17-0.00312-2.35-0.00473-3.55-0.00331-3.27-0.0021-6.53 9.86e-4 -9.8 0.00225-3.52-0.00123-7.04-0.00398-10.6-0.00446-6.9-0.00348-13.8-5.87e-4 -20.7 0.00225-5.6 0.00257-11.2 0.00148-16.8-1.53e-4 -0.796-3.06e-4 -1.59-4.64e-4 -2.41-3.2e-4 -1.62-6.44e-4 -3.23-9.73e-4 -4.85-0.00285-15.2 4.31e-4 -30.3 0.0058-45.5 0.00447-13 0.00369-26.1-9.19e-4 -39.1-0.00535-15.1-0.00746-30.2-0.00439-45.4 3.19e-4 -1.61 6.33e-4 -3.22 9.43e-4 -4.83 1.54e-4 -0.793 3.09e-4 -1.59 4.68e-4 -2.4 8.65e-4 -5.6-5.98e-4 -11.2-0.00295-16.8-0.0028-6.82-0.00206-13.6 0.00328-20.5 0.00264-3.48 0.00364-6.96 3.51e-4 -10.4-0.00271-3.77 6.65e-4 -7.53 0.00568-11.3-0.00223-1.11-0.00446-2.22-0.00676-3.37 0.00261-1 0.00522-2 0.0079-3.03 1.62e-4 -0.87 3.25e-4 -1.74 4.92e-4 -2.64 0.125-1.96 0.125-1.96 1.13-2.96z" fill="#28262B"/>
<path transform="translate(654 349)" d="m0 0 3.53 0.0156 3.53-0.0156c2.97 0.266 2.97 0.266 4.97 2.27 0.256 1.8 0.256 1.8 0.265 4.02 0.00808 0.847 0.0162 1.69 0.0245 2.57-0.00125 0.936-0.00251 1.87-0.0038 2.84 0.0065 0.99 0.013 1.98 0.0197 3 0.0194 3.34 0.0246 6.68 0.0298 10 0.0109 2.38 0.0227 4.77 0.0353 7.15 0.0284 5.82 0.0475 11.6 0.0623 17.5 0.0177 6.77 0.0457 13.5 0.0741 20.3 0.0504 12.1 0.0911 24.2 0.127 36.3 0.0344 11.7 0.0758 23.5 0.125 35.2 0.00303 0.722 0.00605 1.44 0.00917 2.19 0.00302 0.721 0.00604 1.44 0.00916 2.18 0.0559 13.4 0.105 26.7 0.151 40.1 0.0165 4.72 0.0349 9.44 0.0541 14.2 0.0254 6.36 0.0455 12.7 0.0616 19.1 0.00671 2.34 0.0152 4.67 0.0255 7.01 0.0137 3.19 0.0212 6.37 0.027 9.56 0.00816 1.39 0.00816 1.39 0.0165 2.81 0.00136 4.5-0.228 8.69-1.11 13.1-0.0718 1.36-0.109 2.72-0.0977 4.09 0.00483 1.05 0.00483 1.05 0.00977 2.13 0.00838 0.713 0.0168 1.43 0.0254 2.16 0.00451 0.736 0.00902 1.47 0.0137 2.23 0.0117 1.8 0.0296 3.6 0.0488 5.39-2.27 0.054-4.54 0.0928-6.81 0.125-1.26 0.0232-2.53 0.0464-3.83 0.0703-3.36-0.195-3.36-0.195-6.36-2.2-2.58-12.2-1.11-26.1-1.05-38.4 0.00688-2.45 0.0133-4.9 0.0194-7.36 0.016-5.94 0.0369-11.9 0.0606-17.8 0.0192-4.82 0.0367-9.64 0.0529-14.5 0.0464-13.7 0.097-27.4 0.153-41.1 0.00303-0.735 0.00605-1.47 0.00917-2.23 0.00303-0.736 0.00606-1.47 0.00919-2.23 0.049-12 0.0879-23.9 0.122-35.9 0.0354-12.3 0.0782-24.6 0.129-36.9 0.0282-6.9 0.0534-13.8 0.0707-20.7 0.0163-6.48 0.0428-13 0.0763-19.4 0.0107-2.38 0.018-4.77 0.0217-7.15 0.00552-3.24 0.0232-6.48 0.044-9.72-0.00125-0.953-0.00251-1.91-0.0038-2.89 0.00808-0.863 0.0162-1.73 0.0245-2.61 0.00282-0.748 0.00564-1.5 0.00855-2.27 0.479-3.42 2-3.81 5.22-4.09z" fill="#BCBFC1"/>
<path transform="translate(866,1448)" d="m0 0 1 2c0.99-0.33 1.98-0.66 3-1 1.89-0.0685 3.79-0.0848 5.69-0.0625 0.994 0.00902 1.99 0.018 3.01 0.0273 1.14 0.0174 1.14 0.0174 2.3 0.0352v2h2c0.0269 2.31 0.0463 4.62 0.0625 6.94 0.0116 1.29 0.0232 2.58 0.0352 3.9-0.0977 3.16-0.0977 3.16-1.1 4.16-2.98 0.1-5.94 0.134-8.92 0.127-1.42 0.00234-1.42 0.00234-2.87 0.00473-3.2 0.00401-6.4 8.19e-4 -9.6-0.00232-2.28 0.00135-4.57 0.00313-6.85 0.00531-6.22 0.00458-12.4 0.00278-18.7-3.79e-4 -6.5-0.00252-13-1.86e-4 -19.5 0.00139-11.6 0.00194-23.2-0.00118-34.8-0.00626-10.5-0.00447-21.1-0.00369-31.6 9.19e-4 -12.2 0.00535-24.4 0.00735-36.7 0.00439-6.48-0.00156-13-0.00176-19.4 0.00154-6.09 0.00288-12.2 9.05e-4 -18.3-0.00489-2.24-0.00133-4.48-9.32e-4 -6.72 0.00126-3.05 0.00271-6.09-6.66e-4 -9.14-0.00568-0.899 0.00223-1.8 0.00446-2.72 0.00676-6.08-0.0196-6.08-0.0196-7.2-1.13-0.0996-1.94-0.13-3.87-0.125-5.81-0.00258-1.06-0.00516-2.12-0.00781-3.21 0.133-2.98 0.133-2.98 1.13-6.98 71.3-0.33 143-0.66 216-1z" fill="#929394"/>
<path transform="translate(467,848)" d="m0 0 1 2c4.29-0.66 8.58-1.32 13-2l1 2 2-1c2.15-0.0944 4.31-0.122 6.47-0.12 1.01-0.00128 1.01-0.00128 2.03-0.00259 2.26-0.00165 4.52 0.00386 6.78 0.00932 1.62 2.82e-4 3.23 1.24e-4 4.85-4.43e-4 4.4-2.88e-4 8.79 0.00561 13.2 0.0126 4.59 0.00624 9.18 0.00684 13.8 0.00803 8.7 0.00311 17.4 0.0113 26.1 0.0213 9.9 0.0112 19.8 0.0167 29.7 0.0217 20.4 0.0105 40.7 0.0281 61.1 0.0503v2l2 1c-0.0174 1.28-0.0174 1.28-0.0352 2.59-0.00902 1.1-0.018 2.21-0.0273 3.35-0.0174 1.65-0.0174 1.65-0.0352 3.34-0.215 2.64-0.215 2.64 1.1 3.72 3.33 0.245 6.66 0.384 10 0.523 0.991 0.157 1.98 0.315 3 0.477 2.42 3.63 2.21 5.38 2.12 9.69-0.018 1.18-0.0361 2.36-0.0547 3.57-0.0232 0.904-0.0464 1.81-0.0703 2.74-0.987 0.049-1.97 0.098-2.99 0.148-1.28 0.0748-2.56 0.15-3.88 0.227-1.91 0.104-1.91 0.104-3.87 0.211-3.34 0.0865-3.34 0.0865-5.26 2.41-1.19-3.56-1.35-6.97-1.56-10.7-0.146-2.44-0.291-4.88-0.438-7.31-10.7-0.744-21.2-1.07-31.9-0.626-27.5 1.09-55 0.566-82.5 0.31-5.82-0.0537-11.6-0.0988-17.5-0.142-6.35-0.0472-12.7-0.0999-19.1-0.155-2.68-0.0233-5.36-0.0447-8.04-0.0645-3.7-0.0286-7.41-0.0635-11.1-0.1-1.11-0.00733-2.21-0.0147-3.35-0.0222-0.998-0.0112-2-0.0225-3.02-0.034-0.872-0.00775-1.74-0.0155-2.64-0.0235-1.97-0.141-1.97-0.141-2.97-1.14-0.0996-2.29-0.13-4.58-0.125-6.88-0.00258-1.26-0.00516-2.51-0.00781-3.8 0.133-3.32 0.133-3.32 1.13-6.32z" fill="#4A494D"/>
<path transform="translate(898,615)" d="m0 0c16.9-0.0238 33.8-0.0412 50.8-0.0518 7.87-0.00506 15.7-0.0119 23.6-0.0236 32.4-0.0471 64.7-0.0152 97.1 0.485 2.06 0.0315 4.12 0.0613 6.17 0.0908 3.77 0.0559 7.53 0.119 11.3 0.185 1.12 0.0165 2.24 0.033 3.39 0.0501 1.01 0.0197 2.02 0.0395 3.06 0.0598 0.879 0.0154 1.76 0.0307 2.66 0.0465 1.98 0.158 1.98 0.158 2.98 1.16 0.237 2.69 0.422 5.36 0.562 8.06 0.0432 0.759 0.0864 1.52 0.131 2.3 0.106 1.88 0.207 3.76 0.307 5.64-26.1-0.107-52.1-0.22-78.2-0.339-12.1-0.0554-24.2-0.109-36.3-0.158-10.5-0.0428-21.1-0.0891-31.6-0.14-5.59-0.0266-11.2-0.0515-16.8-0.0722-5.25-0.0195-10.5-0.0437-15.8-0.0714-1.93-0.00939-3.87-0.0171-5.8-0.0229-2.63-0.00823-5.25-0.0225-7.88-0.0384-0.775-9.78e-4 -1.55-0.00196-2.35-0.00296-5.25-0.0411-5.25-0.0411-6.36-1.16-0.0989-2.16-0.13-4.33-0.125-6.5-0.00258-1.19-0.00516-2.37-0.00781-3.59 0.133-2.91 0.133-2.91 1.13-3.91l-2-2z" fill="#49484C"/>
<path transform="translate(908 132)" d="m0 0c0.672-8.54e-4 1.34-0.00171 2.04-0.00259 2.26-0.00165 4.51 0.00386 6.77 0.00932 1.62 2.82e-4 3.23 1.24e-4 4.85-4.43e-4 4.39-2.87e-4 8.78 0.0056 13.2 0.0126 4.59 0.00624 9.18 0.00684 13.8 0.00803 8.69 0.00311 17.4 0.0113 26.1 0.0213 9.89 0.0112 19.8 0.0167 29.7 0.0217 20.4 0.0105 40.7 0.0281 61.1 0.0503 1.59 3.19 1.1 6.63 1.06 10.1-0.00451 0.754-0.00902 1.51-0.0137 2.29-0.0118 1.86-0.0297 3.73-0.0488 5.59-19.1 0.0234-38.3 0.041-57.4 0.0518-8.89 0.00514-17.8 0.0121-26.7 0.0236-7.75 0.01-15.5 0.0164-23.3 0.0186-4.1 0.00129-8.2 0.0043-12.3 0.0116-3.87 0.00688-7.74 0.00886-11.6 0.00738-1.41 2.71e-4 -2.81 0.0022-4.22 0.0061-7.67 0.0202-15.3-0.143-23-0.564-1.11-0.0582-1.11-0.0582-2.25-0.118-5.22-0.316-5.22-0.316-6.34-1.44-0.237-2.53-0.422-5.03-0.562-7.56-0.0432-0.711-0.0864-1.42-0.131-2.15-0.106-1.76-0.207-3.52-0.307-5.28 3.41-1.14 5.99-1.12 9.59-1.12z" fill="#929394"/>
<path transform="translate(909 849)" d="m0 0c1.01-0.00256 1.01-0.00256 2.04-0.00518 2.26-0.0033 4.51 0.00772 6.77 0.0186 1.62 5.64e-4 3.23 2.48e-4 4.85-8.85e-4 4.39-5.75e-4 8.78 0.0112 13.2 0.0251 4.59 0.0125 9.18 0.0137 13.8 0.0161 8.69 0.00622 17.4 0.0226 26.1 0.0427 9.89 0.0223 19.8 0.0333 29.7 0.0434 20.4 0.0209 40.7 0.0565 61.1 0.101v18l-7.56-0.562c-7.28-0.489-14.3-0.271-21.6 0.406-2.88 0.156-2.88 0.156-4.88-0.844-3.01-0.0997-5.99-0.14-9-0.133-1.37-0.00144-1.37-0.00144-2.76-0.0029-1.94-6.82e-4 -3.88 0.00117-5.82 0.00534-2.91 0.00526-5.82 1.05e-4 -8.73-0.00635-9.17-0.00305-18.3 0.153-27.4 0.776-7.67 0.5-15.3 0.511-23 0.491-2.46-0.00545-4.93 3.61e-5 -7.39 0.00635-1.59-6.59e-4 -3.18-0.00194-4.77-0.00391-1.09 0.00304-1.09 0.00304-2.2 0.00613-4.08-0.0188-7.87-0.459-11.9-1.14-2.21-0.0562-4.43-0.0626-6.64-0.0273-1.23 0.0122-2.47 0.0245-3.74 0.0371-2.59 0.0354-5.19 0.0745-7.78 0.117-1.23 0.011-2.46 0.0219-3.73 0.0332-1.69 0.0253-1.69 0.0253-3.41 0.051-2.7-0.211-2.7-0.211-4.7-2.21-0.301-2.97-0.301-2.97-0.312-6.5-0.0168-1.17-0.0335-2.33-0.0508-3.53 0.12-0.98 0.24-1.96 0.363-2.97 3.63-2.42 5.27-2.25 9.59-2.24z" fill="#49484C"/>
<path transform="translate(884,866)" d="m0 0h14c4.02 8.04 2.12 22.4 2.02 31.1-0.00961 1.32-0.0192 2.64-0.0291 4-0.0261 3.56-0.0589 7.13-0.0931 10.7-0.0347 3.74-0.0631 7.49-0.0921 11.2-0.0558 7.07-0.117 14.1-0.181 21.2-0.0721 8.05-0.138 16.1-0.203 24.2-0.134 16.5-0.276 33.1-0.424 49.6h-2v-2l-2.62 0.125c-4.16-0.154-7.63-0.83-11-3.35-1.89-2.49-1.72-4.22-1.72-7.33-0.00701-1.16-0.014-2.31-0.0213-3.5 0.00764-1.27 0.0153-2.54 0.0232-3.84-0.00243-1.35-0.00615-2.7-0.0111-4.05-0.00942-3.67 2.5e-5 -7.33 0.0133-11 0.0113-3.84 0.00721-7.68 0.00525-11.5-8.83e-4 -6.45 0.0102-12.9 0.0286-19.3 0.0211-7.45 0.0247-14.9 0.0184-22.3-0.00571-7.17-3.2e-5 -14.3 0.0112-21.5 0.00463-3.05 0.00552-6.1 0.00341-9.14-0.00189-3.6 0.00628-7.19 0.0221-10.8 0.00623-1.94 0.00275-3.88-0.00107-5.82 0.0359-5.91 0.226-11 2.28-16.6z" fill="#BBBEC0"/>
<path transform="translate(450,697)" d="m0 0c0.402 0.494 0.804 0.987 1.22 1.5 2.28 1.92 3.35 1.77 6.28 1.57 3.66-0.238 4.26-0.223 7.5 1.94v3h2c0.0467 16.2 0.082 32.4 0.104 48.6 0.0103 7.53 0.0244 15.1 0.0473 22.6 0.0199 6.56 0.0328 13.1 0.0373 19.7 0.00261 3.47 0.00873 6.95 0.0233 10.4 0.0161 3.88 0.0165 7.76 0.0156 11.6 0.00719 1.15 0.0144 2.3 0.0218 3.49-0.00275 1.06-0.0055 2.12-0.00833 3.21 0.00184 0.917 0.00369 1.83 0.00559 2.78-0.271 2.83-1.07 4.99-2.25 7.57-0.536-0.66-1.07-1.32-1.62-2-2.24-2.27-2.24-2.27-5.38-2.31-3.2 0.262-3.2 0.262-7 1.31v17h-1c-1.16-15.5-1.15-30.9-1.13-46.4 0.00257-3.65 1.75e-4 -7.29-0.00139-10.9-0.00181-6.1 5.46e-4 -12.2 0.00534-18.3 0.00548-7.05 0.00365-14.1-0.00183-21.1-0.00453-6.08-0.00518-12.2-0.00256-18.2 0.00156-3.62 0.00177-7.24-0.00154-10.9-0.00341-4.02 0.00131-8.03 0.0069-12-0.00202-1.2-0.00405-2.4-0.00613-3.63 0.00282-1.09 0.00564-2.17 0.00854-3.3 3.77e-4 -0.948 7.54e-4 -1.9 0.00114-2.87 0.126-2.26 0.126-2.26 1.13-4.26z" fill="#BCBFC1"/>
<path transform="translate(867,1332)" d="m0 0c1.92 0.115 3.83 0.242 5.75 0.375 1.6 0.104 1.6 0.104 3.23 0.211 2.86 0.393 4.52 1.07 7.02 2.41 0.0237 9.38 0.0412 18.8 0.0518 28.1 0.00511 4.36 0.012 8.72 0.0236 13.1 0.0639 24.6-0.301 49.2-1.08 73.8h-15c-1.19-2.39-1.13-3.85-1.13-6.51-0.00282-0.949-0.00564-1.9-0.00854-2.88 0.00202-1.04 0.00405-2.09 0.00613-3.17-0.00263-1.65-0.00263-1.65-0.00531-3.33-0.00442-3.64-0.00148-7.29 0.00189-10.9-6.73e-4 -2.52-0.00164-5.05-0.0029-7.57-0.00148-5.3 5.82e-4 -10.6 0.00534-15.9 0.00544-6.12 0.00368-12.2-0.00183-18.4-0.00508-5.89-0.00455-11.8-0.00162-17.7 6.69e-4 -2.51-1.57e-4 -5.01-0.00248-7.52-0.00253-3.5 0.00132-7 0.0069-10.5-0.00304-1.56-0.00304-1.56-0.00613-3.16 0.00282-0.952 0.00564-1.9 0.00854-2.88 3.77e-4 -0.828 7.54e-4 -1.66 0.00114-2.51 0.126-2.13 0.126-2.13 1.13-5.13z" fill="#49484C"/>
<path transform="translate(524 616)" d="m0 0c0.946-0.00282 1.89-0.00564 2.87-0.00854 1.54 0.00304 1.54 0.00304 3.11 0.00613 1.09-0.00175 2.18-0.0035 3.3-0.00531 3.6-0.0044 7.2-0.00149 10.8 0.00189 2.5-6.73e-4 5-0.00164 7.5-0.0029 5.23-0.00147 10.5 5.74e-4 15.7 0.00534 6.05 0.00545 12.1 0.00367 18.2-0.00183 5.83-0.00508 11.7-0.00455 17.5-0.00162 2.48 6.69e-4 4.96-1.57e-4 7.44-0.00248 3.46-0.00253 6.91 0.00132 10.4 0.0069 1.03-0.00202 2.06-0.00405 3.13-0.00613 0.938 0.00282 1.88 0.00564 2.84 0.00854 1.23 5.66e-4 1.23 5.66e-4 2.48 0.00114 1.98 0.126 1.98 0.126 3.98 1.13l-1 15c-15.6 0.0694-31.2 0.123-46.8 0.155-7.25 0.0155-14.5 0.0366-21.7 0.0709-6.32 0.0299-12.6 0.0492-18.9 0.0559-3.35 0.00392-6.69 0.0132-10 0.0349-3.73 0.0216-7.46 0.0248-11.2 0.0234-1.11 0.0108-2.23 0.0216-3.38 0.0327-1.01-0.00412-2.02-0.00825-3.07-0.0125-0.883 0.00277-1.77 0.00553-2.68 0.00838-0.7-0.122-1.4-0.244-2.12-0.369l-2-3c1.38-1.5 1.38-1.5 3-3h2l-1-9c3.34-0.747 6.42-1.13 9.84-1.13z" fill="#29272C"/>
<path transform="translate(650,497)" d="m0 0h1v10c3.97 1.8 7.68 2.49 12 3l1-4c2.5 3.75 2.31 6.71 2.33 11 0.0117 0.82 0.0233 1.64 0.0353 2.48 0.036 2.71 0.0579 5.43 0.0792 8.14 0.0213 1.89 0.0432 3.77 0.0659 5.66 0.0454 3.96 0.0842 7.92 0.118 11.9 0.0435 5.07 0.1 10.1 0.162 15.2 0.0463 3.9 0.087 7.8 0.126 11.7 0.019 1.87 0.0394 3.74 0.0611 5.6 0.0293 2.62 0.0515 5.23 0.0718 7.85 0.0098 0.769 0.0196 1.54 0.0297 2.33 0.024 4.15-0.295 8.03-1.08 12.1-0.0718 1.36-0.109 2.72-0.0977 4.09 0.00483 1.05 0.00483 1.05 0.00977 2.13 0.00838 0.713 0.0168 1.43 0.0254 2.16 0.00451 0.736 0.00902 1.47 0.0137 2.23 0.0117 1.8 0.0296 3.6 0.0488 5.39-2.27 0.054-4.54 0.0928-6.81 0.125-1.26 0.0232-2.53 0.0464-3.83 0.0703-3.36-0.195-3.36-0.195-6.36-2.2-2.36-11.4-1.06-24.3-0.914-35.9 0.0218-2.09 0.0433-4.18 0.0644-6.27 0.0452-4.36 0.0944-8.71 0.147-13.1 0.0665-5.57 0.124-11.1 0.178-16.7 0.0429-4.31 0.0903-8.61 0.139-12.9 0.0228-2.05 0.0443-4.11 0.0645-6.16 0.029-2.87 0.0638-5.74 0.1-8.6 0.00733-0.838 0.0147-1.68 0.0222-2.54 0.0715-5.03 0.489-9.89 1.2-14.9z" fill="#67686C"/>
<path transform="translate(1e3 349)" d="m0 0c0.827-0.00419 1.65-0.00839 2.51-0.0127 0.904 0.00562 1.81 0.0112 2.74 0.017 0.955-0.0019 1.91-0.0038 2.89-0.00575 3.16-0.00371 6.32 7e-3 9.48 0.0182 2.19 0.00119 4.38 0.00164 6.57 0.00139 4.59 0.00157 9.18 0.00986 13.8 0.0233 5.9 0.017 11.8 0.0208 17.7 0.0201 4.52 2.71e-4 9.05 0.00574 13.6 0.013 2.18 0.00319 4.35 0.00516 6.53 0.00589 3.03 0.00216 6.07 0.0109 9.1 0.0216 0.908-4.53e-4 1.82-9.06e-4 2.75-0.00137 6.2 0.0322 6.2 0.0322 7.31 1.15v16l-104 1v-3h-2c0.581-4.77 1.85-8.7 4-13 3.06-2.04 3.64-2.25 7.07-2.25z" fill="#49484C"/>
<path transform="translate(867,485)" d="m0 0h1c0.248 0.969 0.495 1.94 0.75 2.94 0.88 3.13 0.88 3.13 3.06 3.94 2.4 0.137 4.78 0.192 7.19 0.125l1 2c0.99 0.33 1.98 0.66 3 1 0.0235 9.56 0.0411 19.1 0.0518 28.7 0.00515 4.44 0.0121 8.88 0.0236 13.3 0.0533 21-0.0877 42-1.08 63-2.48-0.146-4.96-0.292-7.44-0.438-0.774-0.0431-1.55-0.0862-2.35-0.131-5.11-0.321-5.11-0.321-6.22-1.43-0.0976-1.41-0.126-2.82-0.127-4.23-0.00282-0.913-0.00564-1.83-0.00854-2.77 0.00202-1.01 0.00405-2.02 0.00613-3.06-0.00175-1.06-0.0035-2.11-0.00531-3.2-0.00442-3.51-0.00148-7.03 0.00189-10.5-6.73e-4 -2.43-0.00164-4.87-0.0029-7.3-0.00148-5.11 6.79e-4 -10.2 0.00534-15.3 0.00569-6.55 0.00242-13.1-0.00357-19.7-0.00361-5.03-0.00246-10.1 1.28e-4 -15.1 6.68e-4 -2.42-1.55e-4 -4.83-0.00248-7.25-0.00254-3.38 0.00133-6.76 0.0069-10.1-0.00202-1-0.00405-2.01-0.00613-3.04 0.00282-0.921 0.00564-1.84 0.00854-2.79 3.77e-4 -0.799 7.54e-4 -1.6 0.00114-2.42 0.125-2.18 0.523-4.09 1.13-6.19z" fill="#4A494D"/>
<path transform="translate(577 849)" d="m0 0c0.771-1.46e-4 1.54-2.92e-4 2.34-4.42e-4 2.55 6.97e-4 5.1 0.00848 7.65 0.0163 1.77 0.00187 3.53 0.00329 5.3 0.00429 4.65 0.00382 9.3 0.0136 14 0.0247 4.75 0.0102 9.49 0.0148 14.2 0.0198 9.31 0.0107 18.6 0.0278 27.9 0.0488v2l2 1c-0.0116 0.855-0.0232 1.71-0.0352 2.59-0.00902 1.1-0.018 2.21-0.0273 3.35-0.0116 1.1-0.0232 2.2-0.0352 3.34-0.215 2.64-0.215 2.64 1.1 3.72 3.33 0.245 6.66 0.384 10 0.523 1.49 0.236 1.49 0.236 3 0.477 2.42 3.63 2.21 5.38 2.12 9.69-0.018 1.18-0.0361 2.36-0.0547 3.57-0.0232 0.904-0.0464 1.81-0.0703 2.74-0.987 0.049-1.97 0.098-2.99 0.148-1.28 0.0748-2.56 0.15-3.88 0.227-1.91 0.104-1.91 0.104-3.87 0.211-3.34 0.0865-3.34 0.0865-5.26 2.41-1.19-3.56-1.35-6.97-1.56-10.7-0.0773-1.29-0.155-2.58-0.234-3.91-0.0671-1.12-0.134-2.24-0.203-3.4-11.5-0.823-22.9-1.06-34.4-0.648-4.12 0.146-8.25 0.267-12.4 0.39-0.801 0.0244-1.6 0.0488-2.43 0.0739-9.27 0.273-18.5 0.284-27.8 0.184v-2h-4l-1-15c3.59-1.2 6.85-1.13 10.6-1.11z" fill="#65666B"/>
<path transform="translate(883,398)" d="m0 0c2.46 0.0868 4.92 0.194 7.38 0.312 0.699 0.0226 1.4 0.0451 2.12 0.0684 2.03 0.107 2.03 0.107 5.51 0.619 2.55 3.83 2.01 5.4 1.56 9.94-0.501 6.02-0.495 11.8-0.0625 17.8 0.666 10.1 0.443 20.1 0.188 30.2-0.0172 0.806-0.0345 1.61-0.0522 2.44-0.0516 2.32-0.117 4.64-0.186 6.96-0.0147 0.698-0.0295 1.4-0.0446 2.12-0.138 3.92-0.702 7-2.4 10.5h2l-1 3c-1.77 0.0541-3.54 0.0928-5.31 0.125-0.986 0.0232-1.97 0.0464-2.99 0.0703-2.7-0.195-2.7-0.195-5.7-2.2v-2h-2c-0.0232-9.99-0.0409-20-0.0518-30-0.00522-4.64-0.0123-9.28-0.0236-13.9-0.0109-4.47-0.0168-8.95-0.0194-13.4-0.00185-1.71-0.00546-3.42-0.0109-5.13-0.00724-2.39-0.00826-4.78-0.0078-7.17-0.0036-0.709-0.00719-1.42-0.0109-2.15 0.00641-3.04 0.155-5.35 1.12-8.26z" fill="#DEE1E3"/>
<path transform="translate(499,615)" d="m0 0c1.13 3.61 1.1 6.98 1.06 10.8-0.00902 1.17-0.018 2.34-0.0273 3.55-0.0116 0.892-0.0232 1.78-0.0352 2.7-3.19 1.59-6.63 1.1-10.1 1.06-0.754-0.00451-1.51-0.00902-2.29-0.0137-1.86-0.0118-3.73-0.0297-5.59-0.0488l1 1c0.0884 2.38 0.115 4.72 0.0977 7.1-0.00141 0.709-0.00283 1.42-0.00429 2.15-0.00561 2.27-0.0182 4.54-0.0309 6.82-0.00501 1.54-0.00958 3.07-0.0137 4.61-0.011 3.78-0.0283 7.55-0.0488 11.3l-3 1 3 2c0.293 3.26 0.293 3.26 0.188 7.12-0.0271 1.28-0.0541 2.56-0.082 3.88-0.0522 1.48-0.0522 1.48-0.105 2.99h-5v-2c-1.98-0.66-3.96-1.32-6-2v-2l-3 1-2-8h-1c-0.0506-7.21-0.0857-14.4-0.11-21.6-0.0101-2.45-0.0237-4.91-0.041-7.36-0.0242-3.52-0.0356-7.04-0.0444-10.6-0.0103-1.1-0.0206-2.2-0.0313-3.33-1.51e-4 -1.02-3.02e-4 -2.04-4.58e-4 -3.09-0.00444-0.899-0.00888-1.8-0.0135-2.73 0.241-2.3 0.241-2.3 2.24-5.3 2.48-0.202 4.72-0.229 7.19-0.125 1.44 0.033 2.88 0.0615 4.32 0.0859 0.739 0.0126 1.48 0.0251 2.24 0.0381 5.76 0.0025 11.5-0.537 17.2-0.999z" fill="#29272C"/>
<path transform="translate(650,423)" d="m0 0h1v10c0.999-0.0838 2-0.168 3.03-0.254 1.94-0.153 1.94-0.153 3.91-0.309 1.29-0.104 2.58-0.209 3.9-0.316 1.04-0.04 2.09-0.0799 3.16-0.121 1.67 1.67 1.12 3.71 1.12 5.95-0.0036 0.707-0.00719 1.41-0.0109 2.14 1.46e-4 0.741 2.92e-4 1.48 4.43e-4 2.25-6.99e-4 2.46-0.00849 4.92-0.0163 7.39-0.00186 1.7-0.00329 3.41-0.00429 5.11-0.00383 4.49-0.0137 8.98-0.0247 13.5-0.0102 4.58-0.0148 9.16-0.0198 13.7-0.0107 8.99-0.0278 18-0.0488 27l-2-2-1 3c-5.02 0.296-7.92 0.0282-12-3-2-2-2-2-2.25-5.04 0.00143-1.31 0.00285-2.61 0.00432-3.96-0.0019-0.721-0.0038-1.44-0.00575-2.18-0.00371-2.39 0.00701-4.78 0.0182-7.17 0.00119-1.66 0.00164-3.32 0.00139-4.99 0.00157-3.49 0.00986-6.98 0.0233-10.5 0.0169-4.46 0.0208-8.92 0.0201-13.4 2.73e-4 -3.44 0.00577-6.87 0.013-10.3 0.00317-1.64 0.00515-3.29 0.00589-4.93 0.00218-2.31 0.011-4.61 0.0216-6.92 0.00381-1.31 0.00762-2.62 0.0116-3.97 0.133-3.65 0.548-7.07 1.13-10.7z" fill="#919293"/>
<path transform="translate(1084,716)" d="m0 0c2.31-0.0269 4.62-0.0463 6.94-0.0625 1.29-0.0116 2.58-0.0232 3.9-0.0352 3.16 0.0977 3.16 0.0977 4.16 1.1 0.0487 2.31 0.0364 4.63 0 6.94-0.0604 6.07 0.114 12.1 0.5 18.1 0.495 7.96 0.886 16 0.5 23.9l-1 1h1c0.103 6.42-0.255 12.6-1 19l-1-3-3.56 0.188c-4.49 0.016-7.46-1.16-11.4-3.19-1.93-1.93-1.13-4.82-1.14-7.39 0.00202-0.898 0.00405-1.8 0.00613-2.72-9.57e-4 -0.919-0.00191-1.84-0.0029-2.78-6.82e-4 -1.95 0.00117-3.9 0.00534-5.85 0.00532-2.98 6.88e-5 -5.96-0.00635-8.93 6.61e-4 -1.89 0.00194-3.79 0.00391-5.68-0.00202-0.89-0.00405-1.78-0.00613-2.7 0.0156-4.13 0.191-7.9 1.14-11.9 0.043-2.4 0.0404-4.79 0-7.19-0.11-6.59-0.11-6.59 1-8.81z" fill="#DEE1E3"/>
<path transform="translate(1067,782)" d="m0 0c1.92-0.0542 3.83-0.0929 5.75-0.125 1.6-0.0348 1.6-0.0348 3.23-0.0703 3 0.194 4.44 0.789 7.02 2.2-0.0355 0.832-0.0711 1.66-0.108 2.52-0.129 3.09-0.254 6.18-0.375 9.28-0.0796 2-0.165 3.99-0.25 5.99-0.0483 1.25-0.0967 2.51-0.146 3.8-0.0707 1.74-0.0707 1.74-0.143 3.51-0.128 2.98-0.128 2.98 1.02 5.91-0.0906 2.74-0.239 5.45-0.438 8.19-0.561 8.62-0.668 17.2-0.562 25.8-2.29 0.221-4.58 0.427-6.88 0.625-1.28 0.116-2.55 0.232-3.87 0.352-1.08 0.00773-2.15 0.0155-3.26 0.0234-2-2-2-2-2.25-4.66 0.00214-1.69 0.00214-1.69 0.00432-3.41-0.00308-1.27-0.00615-2.55-0.00932-3.86 0.0069-1.4 0.0142-2.79 0.0218-4.19 0.00119-1.43 0.00164-2.85 0.00139-4.28 0.00157-2.99 0.00986-5.99 0.0233-8.98 0.017-3.84 0.0208-7.68 0.0201-11.5 2.72e-4 -2.95 0.00575-5.9 0.013-8.84 0.00319-1.42 0.00515-2.83 0.00589-4.25 0.00216-1.98 0.0117-3.96 0.0216-5.93 0.00381-1.13 0.00762-2.25 0.0116-3.41 0.134-2.66 0.134-2.66 1.13-4.66z" fill="#49484C"/>
<path transform="translate(1109 166)" d="m0 0c1.1 0.00902 2.19 0.018 3.32 0.0273 0.843 0.0116 1.69 0.0232 2.55 0.0352 1.77 3.82 2.24 6.76 2.18 11-0.0105 1.17-0.021 2.35-0.0318 3.56-0.0228 1.26-0.0456 2.52-0.069 3.81-0.0269 1.95-0.0269 1.95-0.0543 3.93-0.0394 2.74-0.0867 5.48-0.139 8.22-0.0665 3.51-0.11 7.03-0.147 10.5-0.0393 3.35-0.1 6.7-0.159 10.1-0.0127 1.26-0.0253 2.53-0.0384 3.83-0.0394 1.75-0.0394 1.75-0.0795 3.53-0.0171 1.03-0.0343 2.06-0.0519 3.12-0.204 1.21-0.204 1.21-0.412 2.45-3.72 2.48-6.69 2.62-11 2-2.94-1.25-2.94-1.25-5-4-1.55-8.86-1.19-18.2-1.19-27.1-6.04e-5 -0.675-1.21e-4 -1.35-1.83e-4 -2.05 0.0105-8.26 0.163-16.5 1.06-24.7 0.0784-0.73 0.157-1.46 0.238-2.21 0.255-1.97 0.255-1.97 0.887-4.91 2.76-1.38 5.05-1.1 8.12-1.06z" fill="#28262B"/>
<path transform="translate(1091 666)" d="m0 0c1.05 0.0155 2.1 0.0309 3.19 0.0469 2.81 0.203 2.81 0.203 5.81 1.2v52l-2-2c-2.57-0.306-5.05-0.511-7.62-0.625-0.706-0.0387-1.41-0.0773-2.14-0.117-1.74-0.0943-3.49-0.177-5.23-0.258-0.807-2.85-1.13-5.4-1.16-8.35-0.00961-0.851-0.0192-1.7-0.0291-2.58-0.00425-0.911-0.0085-1.82-0.0129-2.76-0.00855-1.41-0.00855-1.41-0.0173-2.85-0.00943-1.99-0.016-3.98-0.0198-5.96-0.00974-3.05-0.0408-6.09-0.0723-9.14-0.00653-1.93-0.0118-3.86-0.0156-5.79-0.0123-0.913-0.0247-1.83-0.0374-2.77 3e-3 -0.848 6e-3 -1.7 0.00909-2.57-0.00365-0.745-0.00729-1.49-0.011-2.26 0.981-5.25 4.73-5.33 9.37-5.22z" fill="#48474B"/>
<path transform="translate(465 652)" d="m0 0c3.67 4.24 2.8 8.58 2.56 14-0.0439 1.66-0.0439 1.66-0.0887 3.35-0.099 3.53-0.233 7.05-0.368 10.6-0.0733 2.39-0.144 4.78-0.213 7.17-0.173 5.86-0.375 11.7-0.6 17.6-0.608-0.653-1.22-1.31-1.84-1.98-1.98-2.25-1.98-2.25-4.66-2.34-0.864 0.0645-1.73 0.129-2.62 0.195-2.63 0.18-2.63 0.18-4.88 0.125l-2-2h-1c-0.0494-6.05-0.0857-12.1-0.11-18.2-0.0101-2.06-0.0237-4.12-0.041-6.17-0.0243-2.96-0.0356-5.92-0.0444-8.88-0.0103-0.92-0.0206-1.84-0.0313-2.79-1.51e-4 -0.861-3.02e-4 -1.72-4.58e-4 -2.61-0.00444-0.755-0.00888-1.51-0.0135-2.29 0.277-2.44 0.978-4.02 2.24-6.11 4.31-3.35 9.15-1.92 13.7 0.347z" fill="#DFE2E4"/>
<path transform="translate(643 599)" d="m0 0c0.88 0.0902 1.76 0.18 2.67 0.273 2.14 0.352 2.14 0.352 3.14 1.35 0.0731 2.53 0.0925 5.03 0.0625 7.56-0.00451 0.711-0.00902 1.42-0.0137 2.15-0.0118 1.76-0.0298 3.52-0.0488 5.28-0.902-0.0116-1.8-0.0232-2.73-0.0352-1.34-0.0105-2.68-0.0195-4.02-0.0273-0.728-0.00475-1.46-0.00951-2.21-0.0144-5.11-0.00259-10.2 0.158-15.3 0.405-1.26 0.0581-2.51 0.116-3.81 0.176-2.53 0.122-5.05 0.256-7.58 0.404-1.17 0.0549-2.34 0.11-3.54 0.166-1.57 0.0864-1.57 0.0864-3.18 0.175-2.64-0.249-2.64-0.249-4.38-1.69-0.416-0.514-0.832-1.03-1.26-1.56l-2-1c0.55-4.58 1.48-8.65 3-13 1.42 0.00786 1.42 0.00786 2.87 0.0159 3.53 0.0171 7.05 0.0296 10.6 0.0391 1.52 0.00502 3.05 0.0118 4.57 0.0205 2.19 0.0122 4.39 0.0178 6.58 0.0222 1.32 0.00524 2.64 0.0105 4 0.0159 4.45-0.149 8.1-1.23 12.6-0.739z" fill="#DFE2E4"/>
<path transform="translate(1116,227)" d="m0 0 2 2c2.33 0.0417 4.67 0.0417 7 0l2 1v2h5v35c-4.07 1.02-5.97 0.671-10 0-2.28 0.358-2.28 0.358-4 1v-2h-2c-0.168-5.07-0.328-10.1-0.482-15.2-0.0534-1.73-0.109-3.45-0.166-5.18-0.082-2.48-0.157-4.96-0.231-7.44-0.027-0.772-0.0541-1.54-0.0819-2.34-0.0905-3.24-0.0741-5.72 0.961-8.83z" fill="#DEE1E3"/>
<path transform="translate(1100,631)" d="m0 0 2 1c3.35 0.0308 6.68-0.0676 10-0.16 2.97 0.16 2.97 0.16 4.97 2.16 0.176 2.79 0.233 5.46 0.188 8.25-0.00645 0.8-0.0129 1.6-0.0195 2.43-0.0908 7.14-0.562 14.2-1.17 21.3l-17 1c-0.0229-4.81-0.0429-9.61-0.0549-14.4-0.00503-1.64-0.0119-3.27-0.0205-4.91-0.0121-2.35-0.0178-4.7-0.0222-7.04-0.00516-0.733-0.0103-1.47-0.0156-2.22-5.75e-4 -5.18-5.75e-4 -5.18 1.11-7.41z" fill="#DEE1E3"/>
<path transform="translate(1041 849)" d="m0 0c0.707 0.00141 1.41 0.00283 2.14 0.00429 2.26 0.0056 4.52 0.0182 6.79 0.0309 1.53 0.00501 3.07 0.00958 4.6 0.0137 3.76 0.0102 7.52 0.0298 11.3 0.0488v18l-7.56-0.562c-7.3-0.496-14.3-0.244-21.6 0.504-1.43 0.029-1.43 0.029-2.88 0.0586-2-2-2-2-2.2-5.48 0.0133-1.38 0.0372-2.77 0.0703-4.15 0.00902-0.706 0.018-1.41 0.0273-2.14 0.0236-1.74 0.0595-3.49 0.0977-5.23 2.96-1.48 5.95-1.12 9.2-1.1z" fill="#65666B"/>
<path transform="translate(467,848)" d="m0 0 1 2c4.29-0.66 8.58-1.32 13-2l1 2 2-1c2.55-0.0717 5.07-0.0931 7.62-0.0625 1.06 0.00677 1.06 0.00677 2.14 0.0137 1.74 0.0118 3.49 0.0297 5.23 0.0488 1.19 3.56 1.1 6.44 1.06 10.2-0.00902 1.27-0.018 2.54-0.0273 3.86-0.0116 0.976-0.0232 1.95-0.0352 2.96-4.68 0.0247-9.36 0.0428-14 0.0549-1.59 0.00504-3.19 0.0119-4.78 0.0205-2.29 0.0121-4.57 0.0178-6.86 0.0222-0.717 0.00516-1.43 0.0103-2.17 0.0156-1.72 1.96e-4 -3.43-0.0514-5.14-0.113-1-1-1-1-1.13-4.05 0.00258-1.26 0.00516-2.52 0.00781-3.82-0.00258-1.26-0.00516-2.51-0.00781-3.8 0.133-3.32 0.133-3.32 1.13-6.32z" fill="#65666B"/>
<path transform="translate(641 849)" d="m0 0c1.28 0.00902 2.56 0.018 3.88 0.0273 0.987 0.0116 1.97 0.0232 2.99 0.0352v2l2 1c-0.0116 0.855-0.0232 1.71-0.0352 2.59-0.00902 1.1-0.018 2.21-0.0273 3.35-0.0116 1.1-0.0232 2.2-0.0352 3.34-0.215 2.64-0.215 2.64 1.1 3.72 3.33 0.245 6.66 0.384 10 0.523 1.49 0.236 1.49 0.236 3 0.477 2.42 3.63 2.21 5.38 2.12 9.69-0.018 1.18-0.0361 2.36-0.0547 3.57-0.0232 0.904-0.0464 1.81-0.0703 2.74-0.987 0.049-1.97 0.098-2.99 0.148-1.28 0.0748-2.56 0.15-3.88 0.227-1.91 0.104-1.91 0.104-3.87 0.211-3.34 0.0865-3.34 0.0865-5.26 2.41-1.19-3.56-1.35-6.97-1.56-10.7-0.0432-0.702-0.0864-1.4-0.131-2.13-0.106-1.73-0.207-3.46-0.307-5.19-1.07-0.0606-2.14-0.121-3.25-0.184-1.4-0.0844-2.79-0.169-4.19-0.254-0.707-0.0393-1.41-0.0786-2.14-0.119-5.31-0.33-5.31-0.33-6.42-1.44-0.0731-2.53-0.0925-5.03-0.0625-7.56 0.00451-0.711 0.00902-1.42 0.0137-2.15 0.0118-1.76 0.0298-3.52 0.0488-5.28 3-1.5 5.79-1.09 9.12-1.06z" fill="#4A494D"/>
<path transform="translate(684,266)" d="m0 0c3.22-0.328 3.22-0.328 7.06-0.25 1.27 0.0155 2.54 0.0309 3.85 0.0469 3.09 0.203 3.09 0.203 4.09 1.2 0.0731 2.53 0.0925 5.03 0.0625 7.56-0.00451 0.711-0.00902 1.42-0.0137 2.15-0.0118 1.76-0.0298 3.52-0.0488 5.28l-2 1c0.491 0.531 0.982 1.06 1.49 1.61 1.94 3.07 1.82 5.04 1.7 8.64-0.0271 1.08-0.0541 2.16-0.082 3.27-0.0348 0.82-0.0696 1.64-0.105 2.48-2.76 1.38-5.05 1.1-8.12 1.06-1.1-0.00902-2.19-0.018-3.32-0.0273-0.843-0.0116-1.69-0.0232-2.55-0.0352l-2-4h-2c-0.0579-4.44-0.0936-8.87-0.125-13.3-0.0168-1.26-0.0335-2.53-0.0508-3.83-0.00645-1.21-0.0129-2.42-0.0195-3.66-0.0105-1.12-0.0209-2.23-0.0317-3.38 0.227-2.82 0.227-2.82 2.23-5.82z" fill="#29272C"/>
<path transform="translate(1100,316)" d="m0 0h15v2l2 1-1 30-7.94 0.0625c-0.826 0.0091-1.65 0.0182-2.5 0.0276-1.85 0.00715-3.71-0.0398-5.56-0.0901-1.88-1.88-1.13-5.09-1.13-7.59-9.57e-4 -0.66-0.00191-1.32-0.0029-2-6.82e-4 -1.4 0.00117-2.8 0.00534-4.19 0.00534-2.14 5.91e-5 -4.28-0.00635-6.43 6.61e-4 -1.36 0.00194-2.71 0.00391-4.07 0.00113-1.24 0.00226-2.48 0.00342-3.76 0.129-2.97 0.129-2.97 1.13-4.97z" fill="#929394"/>
<path transform="translate(1084,716)" d="m0 0c2.31-0.0269 4.62-0.0463 6.94-0.0625 1.29-0.0116 2.58-0.0232 3.9-0.0352 3.16 0.0977 3.16 0.0977 4.16 1.1 0.0885 2.52 0.115 5.01 0.0977 7.54-0.00141 0.753-0.00283 1.51-0.00429 2.28-0.00561 2.41-0.0182 4.83-0.0309 7.24-0.00501 1.63-0.00958 3.27-0.0137 4.9-0.011 4.01-0.0283 8.02-0.0488 12-0.748-0.0954-1.5-0.191-2.27-0.289-0.985-0.111-1.97-0.222-2.98-0.336-0.975-0.116-1.95-0.232-2.95-0.352-2.93-0.0246-4.34 0.445-6.8 1.98-2-2-2-2-2.23-4.86 0.0142-1.14 0.0284-2.28 0.043-3.45 0.00645-1.13 0.0129-2.26 0.0195-3.43 0.168-3.26 0.168-3.26 0.68-5.73 0.632-3.28 0.544-6.38 0.488-9.72-0.11-6.59-0.11-6.59 1-8.81z" fill="#BCBFC1"/>
<path transform="translate(867,599)" d="m0 0c1.37-0.055 2.75-0.0932 4.12-0.125 0.766-0.0232 1.53-0.0464 2.32-0.0703 2.55 0.195 2.55 0.195 8.55 2.2l1 13c1.57 0.0735 1.57 0.0735 3.18 0.148 1.38 0.075 2.76 0.151 4.14 0.227 1.04 0.0464 1.04 0.0464 2.09 0.0938 3.67 0.212 5.47 0.451 8.6 2.53l-1 1c-0.235 2.35-0.414 4.71-0.562 7.06-0.0838 1.29-0.168 2.58-0.254 3.91-0.0909 1.5-0.0909 1.5-0.184 3.03-2.46 0.0269-4.92 0.0468-7.38 0.0625-0.699 0.00838-1.4 0.0168-2.12 0.0254-5.28 0.0254-5.28 0.0254-7.51-1.09-0.379-2.91-0.379-2.91-0.562-6.5 0.145-4.07 0.145-4.07-1.44-7.5-2.78-0.285-5.55-0.448-8.34-0.621-2.66-0.379-2.66-0.379-5.66-2.38-0.328-2.97-0.328-2.97-0.25-6.5l0.0469-3.53c0.203-2.97 0.203-2.97 1.2-4.97z" fill="#29272C"/>
<path transform="translate(845 149)" d="m0 0c1.04 0.00326 1.04 0.00326 2.11 0.00659 2.12 0.00316 4.24-0.0203 6.37-0.0457 1.35-0.00227 2.7-0.00298 4.04-0.00195 1.84-0.00447 1.84-0.00447 3.72-0.00903 3.06 0.372 3.06 0.372 4.98 1.7 1.77 2.74 1.11 5.2 0.768 8.36-0.12 1.18-0.24 2.36-0.363 3.57-0.107 0.904-0.214 1.81-0.324 2.74-2.46 0.194-4.92 0.381-7.38 0.562-0.699 0.0561-1.4 0.112-2.12 0.17-5.28 0.381-5.28 0.381-7.51-0.732-0.99 0.33-1.98 0.66-3 1-2.21 0.0945-4.42 0.13-6.62 0.125-1.17 0.00258-2.34 0.00516-3.54 0.00781-2.84-0.133-2.84-0.133-3.84-1.13-0.126-2.31-0.176-4.62-0.188-6.94-0.0142-1.27-0.0284-2.53-0.043-3.84 0.529-7.4 7.12-5.52 12.9-5.54z" fill="#BBBEC0"/>
<path transform="translate(813 166)" d="m0 0c2.05-0.00971 4.1-0.0407 6.15-0.0723 1.29-0.00516 2.58-0.0103 3.91-0.0156 1.78-0.014 1.78-0.014 3.6-0.0283 2.97 0.356 2.97 0.356 4.86 1.68 1.78 2.68 1.43 5.14 1.36 8.3-0.0155 1.17-0.0309 2.34-0.0469 3.54-0.203 2.84-0.203 2.84-1.2 3.84-1.96 0.125-3.92 0.176-5.88 0.188-1.6 0.0213-1.6 0.0213-3.24 0.043-2.88-0.23-2.88-0.23-5.88-2.23-1.68 0.621-3.35 1.29-5 2-2.82 0.266-2.82 0.266-5.69 0.25-1.43 0.00773-1.43 0.00773-2.89 0.0156-2.43-0.266-2.43-0.266-4.43-2.27-0.195-3.26-0.195-3.26-0.125-7.12 0.018-1.28 0.0361-2.56 0.0547-3.88 0.0232-0.987 0.0464-1.97 0.0703-2.99 4.22-2.11 9.73-1.23 14.4-1.24z" fill="#28262B"/>
<path transform="translate(1114,282)" d="m0 0c2.14 4.03 2.23 7.54 2.2 12.1-0.00283 0.659-0.00566 1.32-0.00858 2-0.0111 2.09-0.0362 4.18-0.0617 6.27-0.01 1.42-0.0192 2.85-0.0273 4.27-0.0203 3.47-0.0594 6.95-0.0977 10.4l-17-1c-0.251-26.8-0.251-26.8 3-33 4.14-1.72 7.76-2.82 12-1z" fill="#29272C"/>
<path transform="translate(499,615)" d="m0 0c1.13 3.61 1.1 6.98 1.06 10.8-0.00902 1.17-0.018 2.34-0.0273 3.55-0.0116 0.892-0.0232 1.78-0.0352 2.7-3.08 1.54-6.31 1.15-9.69 1.12-1.13-0.0029-1.13-0.0029-2.28-0.00586-7.37-0.0557-14.7-0.52-22-1.12-0.054-2.1-0.0928-4.21-0.125-6.31-0.0232-1.17-0.0464-2.34-0.0703-3.55 0.195-3.14 0.195-3.14 2.2-6.14 2.48-0.202 4.72-0.229 7.19-0.125 1.44 0.033 2.88 0.0615 4.32 0.0859 0.739 0.0126 1.48 0.0251 2.24 0.0381 5.76 0.0025 11.5-0.537 17.2-0.999z" fill="#29272C"/>
<path transform="translate(1065,133)" d="m0 0c4.5-0.124 9-0.214 13.5-0.275 1.53-0.0251 3.06-0.0593 4.59-0.103 2.2-0.0607 4.4-0.089 6.61-0.111 0.684-0.0258 1.37-0.0516 2.07-0.0782 1.94-0.00114 1.94-0.00114 5.22 0.566 2.74 3.35 3.4 5.91 3.31 10.2-0.00387 0.86-0.00773 1.72-0.0117 2.61-0.301 2.21-0.301 2.21-2.3 4.21-3.06 0.151-3.06 0.151-6.94 0.0117-0.683-0.0227-1.37-0.0453-2.07-0.0686-1.44-0.05-2.89-0.105-4.33-0.165-2.22-0.0908-4.43-0.165-6.65-0.238-10.9-0.391-10.9-0.391-12-1.54-0.237-2.53-0.422-5.03-0.562-7.56-0.0432-0.711-0.0864-1.42-0.131-2.15-0.106-1.76-0.207-3.52-0.307-5.28z" fill="#DEE1E3"/>
<path transform="translate(948,367)" d="m0 0c1.1 3.29 1.1 5.74 1.06 9.19-0.00902 1.09-0.018 2.17-0.0273 3.29-0.0116 0.831-0.0232 1.66-0.0352 2.52-10.7 0.79-21.3 1.49-32 0-1-1-1-1-1.1-4.16 0.0174-1.93 0.0174-1.93 0.0352-3.9 0.00902-1.29 0.018-2.58 0.0273-3.91 0.0116-0.999 0.0232-2 0.0352-3.03 3.17-1.59 6.63-1.38 10.1-1.56 1.1-0.0648 1.1-0.0648 2.23-0.131 15.2-0.845 15.2-0.845 19.6 1.69z" fill="#929495"/>
<path transform="translate(677,299)" d="m0 0c1.68 0.62 3.36 1.28 5 2-0.0116 1.09-0.0232 2.17-0.0352 3.29-0.00939 1.45-0.0185 2.89-0.0273 4.34-0.00838 0.713-0.0168 1.43-0.0254 2.16-0.0193 4.2 0.388 8.06 1.09 12.2-0.121 2.55-0.121 2.55-0.438 4.88-0.102 0.781-0.204 1.56-0.309 2.37-0.0838 0.58-0.168 1.16-0.254 1.76-1.92 0.196-3.83 0.381-5.75 0.562-1.6 0.157-1.6 0.157-3.23 0.316-2.7 0.108-4.46-0.163-7.02-0.879-0.0741-4.38-0.129-8.76-0.165-13.1-0.0151-1.49-0.0356-2.98-0.0615-4.47-0.0363-2.14-0.0534-4.28-0.0667-6.42-0.0157-1.29-0.0314-2.58-0.0476-3.9 0.112-1.01 0.225-2.03 0.341-3.07 3.67-2.45 6.74-2.53 11-2z" fill="#4B4A4E"/>
<path transform="translate(970 349)" d="m0 0c1.25 0.00524 2.5 0.0105 3.79 0.0159 0.997 0.00212 0.997 0.00212 2.01 0.00429 2.13 0.00561 4.26 0.0182 6.39 0.0309 1.44 0.00501 2.88 0.00958 4.32 0.0137 3.54 0.011 7.08 0.0283 10.6 0.0488 1 3 1 3 0.258 4.9-0.374 0.672-0.748 1.34-1.13 2.04-1.48 2.68-2.49 5.06-3.12 8.06h2v2h-28c-1.87-4.68-2.21-6.06-1.69-10.8 0.0993-0.964 0.199-1.93 0.301-2.92 0.567-3.41 0.714-3.3 4.25-3.44z" fill="#29272C"/>
<path transform="translate(881,461)" d="m0 0 2 1-1 33c-0.99-0.33-1.98-0.66-3-1v-2c-1.22 0.248-2.43 0.495-3.69 0.75-3.09 0.628-4.19 0.314-7.05-1.15-3.33-3.83-2.93-7.07-2.76-12-0.00258-0.838-0.00516-1.68-0.00781-2.54 0.0796-5.06 0.666-8.74 3.51-13.1 4.06-2.71 7.16-3.44 12-3z" fill="#28262B"/>
<path transform="translate(649,882)" d="m0 0h3c1.54-0.0174 1.54-0.0174 3.1-0.0352 1.16-0.00902 2.33-0.018 3.52-0.0273 1.17-0.0116 2.34-0.0232 3.54-0.0352 2.84 0.0977 2.84 0.0977 3.84 1.1 0.0877 2.07 0.107 4.15 0.0977 6.22-0.00322 1.26-0.00645 2.52-0.00977 3.82-0.00836 1.34-0.0168 2.68-0.0254 4.02-0.00501 1.34-0.00958 2.69-0.0137 4.03-0.0118 3.3-0.0283 6.6-0.0488 9.9-4.34 0.83-6.73 1.15-10.8-0.812-0.758-0.357-1.52-0.714-2.3-1.08-1.95-1.11-1.95-1.11-3.95-3.11-0.227-2.43-0.227-2.43-0.195-5.45 0.00645-1.08 0.0129-2.15 0.0195-3.26 0.0168-1.13 0.0335-2.26 0.0508-3.42 0.00902-1.14 0.018-2.27 0.0273-3.44 0.0236-2.81 0.0566-5.62 0.0977-8.43z" fill="#919293"/>
<path transform="translate(506 600)" d="m0 0c5.63 0.0514 8.54 1.52 12.5 5.49 2.18 2.99 2.61 5.35 2.47 9.01-2 3-2 3-3.94 3.39-0.773 0.00338-1.55 0.00677-2.34 0.0103-1.26 0.0058-1.26 0.0058-2.55 0.0117-0.88-0.0116-1.76-0.0232-2.67-0.0352-0.88 0.0116-1.76 0.0232-2.67 0.0352-0.842-0.00387-1.68-0.00773-2.55-0.0117-1.16-0.00508-1.16-0.00508-2.34-0.0103-1.94-0.388-1.94-0.388-3.94-3.39-0.363-4.81 0.191-8.53 2-13 1.7-1.7 3.74-1.37 6.06-1.5z" fill="#DFE2E4"/>
<path transform="translate(1082,697)" d="m0 0c0.99 0.33 1.98 0.66 3 1 2.23 0.225 4.46 0.408 6.69 0.562 1.18 0.0838 2.36 0.168 3.57 0.254 1.36 0.0909 1.36 0.0909 2.74 0.184v4h2v16l-2-2c-2.57-0.306-5.05-0.511-7.62-0.625-0.706-0.0387-1.41-0.0773-2.14-0.117-1.74-0.0943-3.49-0.177-5.23-0.258-1.27-3.87-1.11-7.73-1.06-11.8 0.00451-0.697 0.00902-1.39 0.0137-2.11 0.0117-1.71 0.0297-3.42 0.0488-5.14z" fill="#64656A"/>
<path transform="translate(757 199)" d="m0 0c1.04-0.0374 2.08-0.0748 3.15-0.113 2.91 0.426 2.91 0.426 5.26 2.1 2.02 2.85 2.16 4.43 2.09 7.89-0.00129 0.95-0.00258 1.9-0.00391 2.88-0.434 2.56-0.434 2.56-1.59 4.38-2.65 1.7-4.72 1.58-7.85 1.56-1.05 0.00773-2.1 0.0155-3.19 0.0234-2.81-0.398-2.81-0.398-4.64-1.47-1.79-2.95-1.7-5.7-1.86-9.11-0.0657-1.27-0.131-2.54-0.199-3.86-0.0374-0.976-0.0748-1.95-0.113-2.96 3.16-1.05 5.61-1.23 8.94-1.31z" fill="#28262B"/>
<path transform="translate(1100,631)" d="m0 0 2 1c3.35 0.0308 6.68-0.0676 10-0.16 2.97 0.16 2.97 0.16 4.97 2.16-0.0175 2.77-0.138 5.38-0.375 8.12l-0.625 7.88-17-1-0.0625-7.88c-0.0091-0.817-0.0182-1.63-0.0276-2.48-0.021-5.43-0.021-5.43 1.09-7.65z" fill="#BCBFC1"/>
<path transform="translate(1108 149)" d="m0 0c1.28 0.00902 2.56 0.018 3.88 0.0273 0.987 0.0116 1.97 0.0232 2.99 0.0352 0.904 3.84 1.11 7.38 1.06 11.3-0.00902 1.07-0.018 2.14-0.0273 3.24-0.0116 0.808-0.0232 1.62-0.0352 2.45-2.46 0.221-4.92 0.428-7.38 0.625-1.05 0.0967-1.05 0.0967-2.12 0.195-1.83 0.141-3.67 0.167-5.51 0.18-2-2-2-2-2.2-5.48 0.0133-1.38 0.0372-2.77 0.0703-4.15 0.00902-0.706 0.018-1.41 0.0273-2.14 0.0236-1.74 0.0595-3.49 0.0977-5.23 3-1.5 5.79-1.09 9.12-1.06z" fill="#929394"/>
<path transform="translate(1081,149)" d="m0 0c2.81-0.0268 5.62-0.0468 8.44-0.0625 0.802-0.00838 1.6-0.0168 2.43-0.0254 2.04-0.00862 4.09 0.0356 6.13 0.0879 1 1 1 1 1.1 4.82-0.00668 1.58-0.0186 3.16-0.0352 4.75-0.00451 0.806-0.00902 1.61-0.0137 2.44-0.0118 2-0.0298 4-0.0488 5.99h-15c-1.91-3.82-0.947-8.61-0.84-12.8 0.192-3.28 0.192-3.28-2.16-5.19z" fill="#29272C"/>
<path transform="translate(1091 349)" d="m0 0c1.27-0.00258 2.54-0.00516 3.85-0.00781 3.09 0.133 3.09 0.133 4.09 1.13 0.0732 2.7 0.0924 5.37 0.0625 8.06-0.00451 0.759-0.00902 1.52-0.0137 2.3-0.0118 1.88-0.0298 3.76-0.0488 5.64-2.65 0.0268-5.29 0.0468-7.94 0.0625-0.755 0.00838-1.51 0.0168-2.29 0.0254-1.93 0.00863-3.85-0.0356-5.78-0.0879-1-1-1-1-1.1-4.38 0.00667-1.39 0.0186-2.79 0.0352-4.18 0.00451-0.711 0.00902-1.42 0.0137-2.15 0.0118-1.76 0.0298-3.52 0.0488-5.28 2.99-1.49 5.74-1.13 9.06-1.12z" fill="#929394"/>
<path transform="translate(1059 849)" d="m0 0 7.38 0.0625v18l-7.94-0.438c-1.24-0.0647-1.24-0.0647-2.5-0.131-5.45-0.321-5.45-0.321-6.56-1.43-0.0731-2.53-0.0925-5.03-0.0625-7.56 0.00451-0.711 0.00902-1.42 0.0137-2.15 0.0118-1.76 0.0298-3.52 0.0488-5.28 3.06-1.53 6.27-1.1 9.62-1.06z" fill="#929394"/>
<path transform="translate(883,398)" d="m0 0c2.46 0.0868 4.92 0.194 7.38 0.312 0.699 0.0226 1.4 0.0451 2.12 0.0684 2.03 0.107 2.03 0.107 5.51 0.619 2.56 3.84 2.04 5.66 1.62 10.2-0.166 1.91-0.166 1.91-0.336 3.86-0.0954 0.976-0.191 1.95-0.289 2.96-2.46 0.0538-4.92 0.0936-7.38 0.125-1.05 0.0251-1.05 0.0251-2.12 0.0508-1.84 0.0177-3.67-0.0727-5.51-0.176-2-2-2-2-2.23-4.93 0.0142-1.16 0.0284-2.31 0.043-3.5 0.00645-1.15 0.0129-2.31 0.0195-3.5 0.168-3.07 0.168-3.07 1.17-6.07z" fill="#939495"/>
<path transform="translate(742 199)" d="m0 0c0.971-0.0142 1.94-0.0284 2.94-0.043 2.5 0.23 2.5 0.23 4.5 2.23 0.145 2.59 0.186 5.04 0.125 7.62l-0.125 7.38h-17c-0.125-13.8-0.125-13.8 1-16 3.08-1.03 5.33-1.17 8.56-1.19z" fill="#B9BCBE"/>
<path transform="translate(891 849)" d="m0 0c0.875-0.00258 1.75-0.00516 2.65-0.00781 2.41 0.133 2.41 0.133 5.41 1.13 0.0606 0.976 0.121 1.95 0.184 2.96 0.126 1.91 0.126 1.91 0.254 3.86 0.0812 1.26 0.162 2.53 0.246 3.83 0.188 3.35 0.188 3.35 1.32 6.36-2.61 0.108-5.21 0.187-7.81 0.25-0.738 0.0335-1.48 0.067-2.24 0.102-5.43 0.0984-5.43 0.0984-7.94-2.09-1.1-2.46-1.38-4.08-1.32-6.77 0.00387-0.753 0.00773-1.51 0.0117-2.28 0.335-2.47 0.99-4.11 2.3-6.22 2.47-1.24 4.18-1.13 6.94-1.12z" fill="#29272C"/>
<path transform="translate(958 365)" d="m0 0c1.72 0.118 1.72 0.118 3.48 0.238 2.9 0.449 2.9 0.449 4.9 2.45 0.28 4.68 0.0852 9.31 0 14l-15 1c-3.36-5.6-3.36-5.6-3.12-10.2 0.248-3.55 0.248-3.55-0.875-6.81 3.63-1.19 6.84-0.974 10.6-0.688z" fill="#BCBFC1"/>
<path transform="translate(650,1449)" d="m0 0c2.46-0.0538 4.92-0.0936 7.38-0.125 1.05-0.0251 1.05-0.0251 2.12-0.0508 1.84-0.0177 3.67 0.0727 5.51 0.176 2 2 2 2 2.05 5.22-0.098 1.27-0.196 2.53-0.297 3.84-0.0877 1.27-0.175 2.54-0.266 3.85-0.16 1.02-0.32 2.04-0.484 3.09-2.99 1.49-5.74 1.13-9.06 1.12-1.27 0.00258-2.54 0.00516-3.85 0.00781-3.09-0.133-3.09-0.133-4.09-1.13-0.0996-1.94-0.13-3.87-0.125-5.81-0.00258-1.06-0.00516-2.12-0.00781-3.21 0.112-2.52 0.402-4.58 1.13-6.98z" fill="#BCBFC1"/>
<path transform="translate(717,232)" d="m0 0c2.31-0.0269 4.62-0.0463 6.94-0.0625 1.29-0.0116 2.58-0.0232 3.9-0.0352 3.16 0.0977 3.16 0.0977 4.16 1.1 0.0732 2.7 0.0924 5.37 0.0625 8.06-0.00451 0.759-0.00902 1.52-0.0137 2.3-0.0118 1.88-0.0298 3.76-0.0488 5.64h-15c-2.15-5.38-3.04-9.21-0.984-14.7 0.325-0.753 0.65-1.51 0.984-2.28z" fill="#29272C"/>
<path transform="translate(907 132)" d="m0 0c1.05-0.0258 2.1-0.0516 3.19-0.0781 2.81 0.328 2.81 0.328 4.64 1.39 1.79 2.96 1.7 5.7 1.86 9.12 0.0986 1.91 0.0986 1.91 0.199 3.86 0.0374 0.976 0.0748 1.95 0.113 2.96-2.81 0.0268-5.62 0.0468-8.44 0.0625-0.802 0.00838-1.6 0.0168-2.43 0.0254-2.04 0.00862-4.09-0.0356-6.13-0.0879-2-2-1.41-5.82-1.56-8.56-0.0432-0.711-0.0864-1.42-0.131-2.15-0.106-1.76-0.207-3.52-0.307-5.28 3.19-1.06 5.64-1.2 9-1.25z" fill="#BCBFC1"/>
<path transform="translate(649,598)" d="m0 0c0.532 0.165 1.06 0.33 1.61 0.5 2.91 0.611 5.6 0.558 8.57 0.5 1.94-0.0375 3.88-0.0469 5.81 0 1 1 1 1 1.1 4.6-0.00667 1.49-0.0186 2.98-0.0352 4.46-0.00451 0.759-0.00902 1.52-0.0137 2.3-0.0118 1.88-0.0298 3.76-0.0488 5.64-2.27 0.054-4.54 0.0928-6.81 0.125-1.9 0.0348-1.9 0.0348-3.83 0.0703-3.36-0.195-3.36-0.195-6.36-2.2-0.547-3.19-0.547-3.19-0.75-7-0.0773-1.26-0.155-2.52-0.234-3.81-0.0156-3.19-0.0156-3.19 0.984-5.19z" fill="#4A494D"/>
<path transform="translate(808 166)" d="m0 0c1.28 0.00902 2.56 0.018 3.88 0.0273 0.987 0.0116 1.97 0.0232 2.99 0.0352v2l2 1-0.5 2c-0.622 3.73-0.564 7.22-0.5 11-3.25 0.963-6.24 1.16-9.62 1.19-1.44 0.0213-1.44 0.0213-2.91 0.043-2.46-0.23-2.46-0.23-4.46-2.23-0.195-3.26-0.195-3.26-0.125-7.12 0.018-1.28 0.0361-2.56 0.0547-3.88 0.0232-0.987 0.0464-1.97 0.0703-2.99 3-1.5 5.79-1.09 9.12-1.06z" fill="#66676C"/>
<path transform="translate(643 599)" d="m0 0c0.862 0.0993 1.72 0.199 2.61 0.301 2.07 0.387 2.07 0.387 3.07 1.39 0.0731 2.53 0.0925 5.03 0.0625 7.56-0.00451 0.711-0.00902 1.42-0.0137 2.15-0.0118 1.76-0.0298 3.52-0.0488 5.28-2.65 0.0268-5.29 0.0468-7.94 0.0625-0.755 0.00838-1.51 0.0168-2.29 0.0254-1.93 0.00863-3.85-0.0356-5.78-0.0879-1-1-1-1-1.1-4.16 0.0174-1.93 0.0174-1.93 0.0352-3.9 0.00902-1.29 0.018-2.58 0.0273-3.91 0.0116-0.999 0.0232-2 0.0352-3.03 4.05-1.55 7.01-2.23 11.3-1.69z" fill="#BCBFC1"/>
<path transform="translate(648,866)" d="m0 0c2.63-0.0807 5.25-0.14 7.88-0.188 1.12-0.0377 1.12-0.0377 2.26-0.0762 2.17-0.0293 2.17-0.0293 5.86 0.264 2.42 3.63 2.21 5.38 2.12 9.69-0.018 1.18-0.0361 2.36-0.0547 3.57-0.0232 0.904-0.0464 1.81-0.0703 2.74-1.48 0.0735-1.48 0.0735-2.99 0.148-1.28 0.0748-2.56 0.15-3.88 0.227-1.91 0.104-1.91 0.104-3.87 0.211-3.34 0.0865-3.34 0.0865-5.26 2.41-1.24-3.71-1.36-7.31-1.56-11.2-0.0432-0.75-0.0864-1.5-0.131-2.27-0.106-1.85-0.207-3.69-0.307-5.54z" fill="#65666B"/>
<path transform="translate(848,149)" d="m0 0c2.6-0.0809 5.21-0.14 7.81-0.188 0.738-0.0251 1.48-0.0503 2.24-0.0762 2.96-0.0402 5.34-0.0652 7.98 1.36 1.5 2.95 1.01 5.35 0.656 8.59-0.12 1.18-0.24 2.36-0.363 3.57-0.107 0.904-0.214 1.81-0.324 2.74-2.46 0.221-4.92 0.428-7.38 0.625-1.05 0.0967-1.05 0.0967-2.12 0.195-1.83 0.141-3.67 0.167-5.51 0.18-2-2-2-2-2.16-4.71 0.0322-1.06 0.0645-2.13 0.0977-3.22 0.0963-3.45 0.158-5.78-0.938-9.06z" fill="#65666B"/>
<path transform="translate(892 133)" d="m0 0c1.17 0.00645 2.34 0.0129 3.54 0.0195 2.84 0.168 2.84 0.168 3.84 1.17 0.0732 2.53 0.0923 5.03 0.0625 7.56l-0.0625 7.44h-16c-2.28-5.7-2.28-5.7-1.81-9.69 0.0761-0.767 0.152-1.53 0.23-2.32 1.44-4.92 5.98-4.23 10.2-4.18z" fill="#DFE2E4"/>
<path transform="translate(1067,832)" d="m0 0c2.31-0.0269 4.62-0.0463 6.94-0.0625 1.29-0.0116 2.58-0.0232 3.9-0.0352 3.16 0.0977 3.16 0.0977 4.16 1.1 0.0732 2.7 0.0924 5.37 0.0625 8.06-0.00451 0.759-0.00902 1.52-0.0137 2.3-0.0118 1.88-0.0298 3.76-0.0488 5.64-2.29 0.221-4.58 0.427-6.88 0.625-1.91 0.174-1.91 0.174-3.87 0.352-1.08 0.00773-2.15 0.0155-3.26 0.0234-2-2-2-2-2.23-5.19 0.0142-1.26 0.0284-2.52 0.043-3.81 0.00645-1.26 0.0129-2.52 0.0195-3.81 0.168-3.19 0.168-3.19 1.17-5.19z" fill="#929394"/>
<path transform="translate(461,830)" d="m0 0 5 2 1 18-7.44-0.438c-0.774-0.0431-1.55-0.0862-2.35-0.131-5.11-0.321-5.11-0.321-6.22-1.43-0.0732-2.7-0.0924-5.37-0.0625-8.06 0.00451-0.759 0.00902-1.52 0.0137-2.3 0.0118-1.88 0.0298-3.76 0.0488-5.64 3.56-1.93 5.91-2.33 10-2z" fill="#DEE1E3"/>
<path transform="translate(1100,316)" d="m0 0h15v2l2 1-1 14-17-1c-0.125-13.8-0.125-13.8 1-16z" fill="#66676C"/>
<path transform="translate(467,848)" d="m0 0 1 2c1.39-0.217 1.39-0.217 2.81-0.438 1.8-0.278 1.8-0.278 3.63-0.562 1.19-0.186 2.39-0.371 3.62-0.562 2.94-0.438 2.94-0.438 3.94-0.438v18l-7.44 0.0625c-0.774 0.0091-1.55 0.0182-2.35 0.0276-1.74 0.00716-3.48-0.0398-5.22-0.0901-1-1-1-1-1.13-4.05 0.00258-1.26 0.00516-2.52 0.00781-3.82-0.00258-1.26-0.00516-2.51-0.00781-3.8 0.133-3.32 0.133-3.32 1.13-6.32z" fill="#919293"/>
<path transform="translate(883,411)" d="m0 0h1v5h14c1.5 3 1.09 5.79 1.06 9.12-0.00902 1.28-0.018 2.56-0.0273 3.88-0.0116 0.987-0.0232 1.97-0.0352 2.99-2.91 1.45-5.28 0.926-8.5 0.688-1.17-0.0786-2.33-0.157-3.53-0.238-2.97-0.449-2.97-0.449-4.97-2.45-0.172-2.69-0.232-5.26-0.188-7.94 6.45e-4 -0.729 0.00129-1.46 0.00195-2.21 0.0264-3.2 0.166-5.8 1.19-8.85z" fill="#BCBFC1"/>
<path transform="translate(901,366)" d="m0 0h15v16l-7.94 0.0625c-0.826 0.0091-1.65 0.0182-2.5 0.0276-1.85 0.00715-3.71-0.0398-5.56-0.0901-1-1-1-1-1.1-3.94 0.0116-1.19 0.0232-2.39 0.0352-3.62 0.00902-1.2 0.018-2.4 0.0273-3.63 0.0116-0.927 0.0232-1.85 0.0352-2.81h2v-2z" fill="#29272C"/>
<path transform="translate(771 182)" d="m0 0c1.78 0.0348 1.78 0.0348 3.59 0.0703 1.78 0.0271 1.78 0.0271 3.6 0.0547 0.915 0.0232 1.83 0.0464 2.77 0.0703v2l2 1-1 14c-2.48 0.0269-4.96 0.0468-7.44 0.0625-0.707 0.00838-1.41 0.0168-2.14 0.0254-1.81 0.00865-3.61-0.0357-5.42-0.0879-1.93-1.93-1.17-5.37-1.19-7.94-0.0142-1.27-0.0284-2.53-0.043-3.84 0.307-4.29 0.951-5.14 5.27-5.42z" fill="#65666B"/>
<path transform="translate(885,382)" d="m0 0c4.44-0.291 8.7-0.303 13 1 1.53 3.07 1.1 6.27 1.06 9.62-0.00451 0.706-0.00902 1.41-0.0137 2.14-0.0118 1.74-0.0297 3.49-0.0488 5.23-2.46-0.114-4.92-0.24-7.38-0.375-0.699-0.0309-1.4-0.0619-2.12-0.0938-5.28-0.305-5.28-0.305-7.51-2.53-0.0469-2.71-0.0469-2.71 0.25-5.94 0.0877-1.06 0.175-2.12 0.266-3.21 0.484-2.85 0.484-2.85 2.48-5.85z" fill="#4A494D"/>
<path transform="translate(667,332)" d="m0 0c2.31-0.0269 4.62-0.0463 6.94-0.0625 1.29-0.0116 2.58-0.0232 3.9-0.0352 3.16 0.0977 3.16 0.0977 4.16 1.1 0.237 2.86 0.422 5.7 0.562 8.56 0.144 2.78 0.289 5.57 0.438 8.44l-17-1-0.0625-7.38c-0.0091-0.765-0.0182-1.53-0.0276-2.32-0.021-5.08-0.021-5.08 1.09-7.31z" fill="#29272C"/>
<path transform="translate(876 1449)" d="m0 0c1.5 0.0135 1.5 0.0135 3.04 0.0273 0.771 0.0116 1.54 0.0232 2.34 0.0352v2h2c0.0269 2.31 0.0463 4.62 0.0625 6.94 0.0116 1.29 0.0232 2.58 0.0352 3.9-0.0977 3.16-0.0977 3.16-1.1 4.16-2.53 0.0731-5.03 0.0925-7.56 0.0625-0.711-0.00451-1.42-0.00902-2.15-0.0137-1.76-0.0118-3.52-0.0298-5.28-0.0488-0.224-1.73-0.428-3.46-0.625-5.19-0.116-0.963-0.232-1.93-0.352-2.92-0.0257-3.17 0.515-5.1 1.98-7.89 2.64-1.32 4.68-1.1 7.62-1.06z" fill="#B6B9BB"/>
<path transform="translate(1065,349)" d="m0 0h17v17h-17l1-8c0.308-4.67 0.308-4.67-1-9z" fill="#66676C"/>
<path transform="translate(684,266)" d="m0 0c3.22-0.328 3.22-0.328 7.06-0.25 1.27 0.0155 2.54 0.0309 3.85 0.0469 3.09 0.203 3.09 0.203 4.09 1.2 0.0731 2.53 0.0925 5.03 0.0625 7.56-0.00451 0.711-0.00902 1.42-0.0137 2.15-0.0118 1.76-0.0298 3.52-0.0488 5.28-2.46 0.0538-4.92 0.0936-7.38 0.125-1.05 0.0251-1.05 0.0251-2.12 0.0508-1.84 0.0177-3.67-0.0727-5.51-0.176-2-2-2-2-2.27-4.5 0.00516-0.971 0.0103-1.94 0.0156-2.94-0.00516-0.968-0.0103-1.94-0.0156-2.93 0.266-2.63 0.266-2.63 2.27-5.63z" fill="#919293"/>
<path transform="translate(792 166)" d="m0 0c1.08-0.00258 2.15-0.00516 3.26-0.00781 2.62 0.133 2.62 0.133 3.62 1.13 0.0731 2.53 0.0925 5.03 0.0625 7.56-0.00451 0.711-0.00902 1.42-0.0137 2.15-0.0118 1.76-0.0298 3.52-0.0488 5.28-2.65 0.0268-5.29 0.0468-7.94 0.0625-0.755 0.00838-1.51 0.0168-2.29 0.0254-1.93 0.00863-3.85-0.0356-5.78-0.0879-1-1-1-1-1.13-3.65 0.00258-1.08 0.00516-2.17 0.00781-3.29-0.00258-1.08-0.00516-2.16-0.00781-3.28 0.133-2.79 0.133-2.79 1.13-4.79 3.25-1.08 5.71-1.13 9.12-1.12z" fill="#DEE1E3"/>
<path transform="translate(884,866)" d="m0 0h14c1.53 3.06 1.1 6.27 1.06 9.62l-0.0625 7.38-17-1c-0.181-5.87 0.109-10.4 2-16z" fill="#929394"/>
<path transform="translate(677,299)" d="m0 0 5 2v15l-14 1v-2h-2c-0.0808-2.29-0.139-4.58-0.188-6.88-0.0348-1.28-0.0696-2.55-0.105-3.87 0.0967-1.08 0.193-2.15 0.293-3.26 3.67-2.45 6.74-2.53 11-2z" fill="#919293"/>
<path transform="translate(864,149)" d="m0 0h18v16c-4.06 0.811-6.32 1.06-10.2 0.625-0.871-0.0902-1.74-0.18-2.64-0.273-2.11-0.352-2.11-0.352-3.11-1.35-0.0318-3.34 0.0686-6.66 0.16-10 0.169-3.12 0.169-3.12-2.16-5z" fill="#28262B"/>
<path transform="translate(704 249)" d="m0 0 3.53 0.0156 3.53-0.0156c2.97 0.266 2.97 0.266 4.97 2.27 0.145 2.74 0.187 5.38 0.125 8.12-0.00902 0.754-0.018 1.51-0.0273 2.29-0.0236 1.86-0.0595 3.73-0.0977 5.59l-2-1c-2.16-0.205-4.33-0.366-6.5-0.5-6.28-0.389-6.28-0.389-8.5-1.5-0.0539-2.12-0.0927-4.25-0.125-6.38-0.0232-1.18-0.0464-2.37-0.0703-3.59 0.266-4.14 1.03-4.93 5.16-5.3z" fill="#66676C"/>
<path transform="translate(1066,815)" d="m0 0c0.99 0.33 1.98 0.66 3 1 2.07-0.0857 4.13-0.238 6.19-0.438 1.09-0.102 2.17-0.204 3.29-0.309 0.831-0.0838 1.66-0.168 2.52-0.254 1.53 3.06 1.1 6.27 1.06 9.62l-0.0625 7.38h-16v-17z" fill="#66676C"/>
<path transform="translate(1075 766)" d="m0 0c1.08 0.0155 2.15 0.0309 3.26 0.0469 2.62 0.203 2.62 0.203 3.62 1.2 0.0733 2.86 0.0924 5.7 0.0625 8.56-0.00451 0.806-0.00902 1.61-0.0137 2.44-0.0118 2-0.0298 4-0.0488 5.99-0.99-0.33-1.98-0.66-3-1-2.23-0.225-4.46-0.408-6.69-0.562-1.18-0.0838-2.36-0.168-3.57-0.254-1.36-0.0909-1.36-0.0909-2.74-0.184-0.081-2.1-0.139-4.21-0.188-6.31-0.0348-1.17-0.0696-2.34-0.105-3.55 0.293-3.14 0.293-3.14 1.42-5.04 2.71-1.59 4.88-1.42 8-1.35z" fill="#29272C"/>
<path transform="translate(925 366)" d="m0 0c1.77-0.00387 1.77-0.00387 3.57-0.00781 2.87 0.133 2.87 0.133 3.87 1.13 0.237 2.69 0.422 5.36 0.562 8.06 0.0432 0.759 0.0864 1.52 0.131 2.3 0.106 1.88 0.207 3.76 0.307 5.64-2.65-0.14-5.29-0.287-7.94-0.438-0.755-0.0393-1.51-0.0786-2.29-0.119-5.66-0.33-5.66-0.33-6.78-1.44-0.0727-2.35-0.0837-4.71-0.0625-7.06 0.00902-1.29 0.018-2.58 0.0273-3.91 0.0116-0.999 0.0232-2 0.0352-3.03 2.87-1.43 5.37-1.13 8.56-1.12z" fill="#66676C"/>
<path transform="translate(681,282)" d="m0 0c1 1 1 1 1.1 4.82-0.00668 1.58-0.0186 3.16-0.0352 4.75-0.00451 0.806-0.00902 1.61-0.0137 2.44-0.0118 2-0.0298 4-0.0488 5.99h-15c-1.46-2.91-0.889-5.28-0.625-8.5 0.0902-1.17 0.18-2.33 0.273-3.53 0.352-2.97 0.352-2.97 1.35-4.97 4.29-1.3 8.56-1.15 13-1z" fill="#DBDEE0"/>
<path transform="translate(1084,716)" d="m0 0c2.31-0.0269 4.62-0.0463 6.94-0.0625 1.29-0.0116 2.58-0.0232 3.9-0.0352 3.16 0.0977 3.16 0.0977 4.16 1.1 0.0732 2.53 0.0923 5.03 0.0625 7.56l-0.0625 7.44h-16c-0.125-13.8-0.125-13.8 1-16z" fill="#929394"/>
<path transform="translate(468,616)" d="m0 0c3.26-0.293 3.26-0.293 7.12-0.188 3.4 0.0928 3.4 0.0928 6.88 0.188v17l-16-1c-0.25-12.6-0.25-12.6 2-16z" fill="#909193"/>
<path transform="translate(721 216)" d="m0 0c1.17 0.0142 2.35 0.0284 3.56 0.043 1.77 0.00967 1.77 0.00967 3.57 0.0195 2.87 0.168 2.87 0.168 3.87 1.17 0.0732 2.53 0.0923 5.03 0.0625 7.56l-0.0625 7.44h-16c-0.195-10.7-0.195-10.7 0-14 2-2 2-2 5-2.23z" fill="#BABDBF"/>
<path transform="translate(1108 616)" d="m0 0 2.91-0.0781c2.59 0.328 2.59 0.328 4.46 1.43 2.51 4.19 0.634 10.3 0.137 14.9l-14 1c-1.87-5.49-2.24-10.2-2-16 3.05-1.02 5.3-1.2 8.5-1.25z" fill="#DEE1E3"/>
<path transform="translate(476 832)" d="m0 0c1.23 0.0135 1.23 0.0135 2.48 0.0273 0.94 0.0174 0.94 0.0174 1.9 0.0352 1.98 3.31 2.24 5.8 2.19 9.62-0.00645 0.962-0.0129 1.92-0.0195 2.91-0.168 2.46-0.168 2.46-1.17 4.46-2.94 0.414-2.94 0.414-6.56 0.625-1.2 0.0748-2.4 0.15-3.63 0.227-1.39 0.0735-1.39 0.0735-2.81 0.148v-2h-2v-12l2 2 0.375-2.44 0.625-2.56c2.41-1.2 3.95-1.1 6.62-1.06z" fill="#27252A"/>
<path transform="translate(665,1428)" d="m0 0h1l1 22c-9.96 0.293-9.96 0.293-13 0-2.34-3.51-2.61-4.87-2-9 2.34-2.41 2.34-2.41 5.38-4.62 4.77-3.42 4.77-3.42 7.62-8.38z" fill="#65666B"/>
<path transform="translate(754 184)" d="m0 0c1.37 0.0174 1.37 0.0174 2.78 0.0352 0.919 0.00902 1.84 0.018 2.79 0.0273 0.71 0.0116 1.42 0.0232 2.15 0.0352l-1 3 4 1c-0.857 8.57-0.857 8.57-3 12l-3.81-0.375c-0.708-0.0696-1.42-0.139-2.14-0.211-2.04-0.414-2.04-0.414-5.04-2.41-0.328-2.79-0.328-2.79-0.25-6.06 0.0155-1.08 0.0309-2.17 0.0469-3.29 0.277-3.61 0.277-3.61 3.49-3.75z" fill="#DFE2E4"/>
<path transform="translate(1125,184)" d="m0 0c5.75 2.75 5.75 2.75 8 5 0.244 3.3 0.201 6.15-0.562 9.38-1.44 1.62-1.44 1.62-4.69 2.75-3.82-0.127-4.48-0.203-7.19-2.56-2.33-2.63-2.93-4.44-2.94-7.94l0.375-3.62 2.38 0.188 2.62-0.188 2-3z" fill="#DFE2E4"/>
<path transform="translate(678,323)" d="m0 0h4v9h-6c-0.25-5.62-0.25-5.62 2-9z" fill="#66676C"/>
<path transform="translate(814,173)" d="m0 0 2 1v8l-5-1v-2h2l-1-3 2-3z" fill="#909192"/>
</svg>
