<?xml version="1.0"?>
<svg xmlns:rdf="http://www.w3.org/1999/02/22-rdf-syntax-ns#" xmlns="http://www.w3.org/2000/svg" xmlns:cc="http://web.resource.org/cc/" xmlns:xlink="http://www.w3.org/1999/xlink" xmlns:dc="http://purl.org/dc/elements/1.1/" xmlns:svg="http://www.w3.org/2000/svg" id="svg2" viewBox="0 0 264.19 264.19" version="1.0">
  <defs id="defs4">
    <linearGradient id="linearGradient2362" y2="235.02" gradientUnits="userSpaceOnUse" y1="25.793" x2="238.39" x1="27.66">
      <stop id="stop2358" stop-color="#aa87de" offset="0"/>
      <stop id="stop2360" stop-color="#37abc8" offset="1"/>
    </linearGradient>
  </defs>
  <g id="layer1">
    <path id="path52" d="m244.06 244.07v-70.87h4.25v35.43h15.59v-153.07l-15.59 0.001v35.433h-4.25v-70.867h-70.86v-4.25h35.43v-15.594l-153.07 0.00046v15.594h35.43v4.25h-70.863v70.867h-4.254v-35.433h-15.59l0.00046 153.07h15.59v-35.43h4.254v70.87h70.863v4.25h-35.43v15.58h153.07v-15.58h-35.43v-4.25h70.86z" stroke="#000" stroke-miterlimit="10" stroke-width=".56693" fill="#a40"/>
    <path id="path50" d="m241.23 241.23v-70.86h9.92v35.43h9.92v-147.4l-9.92 0.001v35.429h-9.92v-70.863h-70.87v-9.922h35.44v-9.9215h-147.41l0.002 9.9215h35.434v9.922h-70.867v70.863h-9.918v-35.429h-9.9215v147.4h9.9215v-35.43h9.918v70.86h70.867v9.93h-35.434v9.92h147.41v-9.92h-35.44v-9.93h70.87z" stroke="#000" stroke-miterlimit="10" stroke-width=".56693" fill="#ffe6d5"/>
    <path id="path2364" fill-rule="evenodd" fill="#0ff" transform="matrix(1.0815 0 0 1.1312 -2.102 -7.6739)" d="m223.29 123.62a98.75 95.805 0 1 1 -197.5 0 98.75 95.805 0 1 1 197.5 0z"/>
    <path id="path44" d="m235.56 132.1c0-57.143-46.32-103.47-103.46-103.47-57.145 0.003-103.47 46.327-103.47 103.47 0.001 57.14 46.325 103.46 103.47 103.46 57.14 0 103.46-46.32 103.46-103.46z" stroke="#000" stroke-miterlimit="10" stroke-width=".56693" fill="#0f0"/>
    <path id="path2368" d="m232.72 132.1c0-55.576-45.05-100.63-100.62-100.63-55.579-0.001-100.64 45.054-100.64 100.63 0.003 55.57 45.061 100.63 100.64 100.63 55.57 0 100.62-45.06 100.62-100.63" stroke="#000" stroke-miterlimit="10" stroke-width=".56693" fill="#ff0"/>
    <path id="path2370" d="m229.89 132.1c0-54.01-43.79-97.799-97.79-97.799-54.012 0-97.801 43.789-97.801 97.799s43.789 97.79 97.801 97.79c54 0 97.79-43.78 97.79-97.79" stroke="#000" stroke-miterlimit="10" stroke-width=".56693" fill="#fff"/>
    <path id="path2327" d="m202.96 132.1c0-39.135-31.73-70.865-70.86-70.865-39.141 0-70.872 31.73-70.872 70.865 0 39.14 31.731 70.87 70.872 70.87 39.13 0 70.86-31.73 70.86-70.87z" stroke="#000" stroke-miterlimit="10" stroke-width=".56693" fill="#87deaa"/>
    <path id="path2354" fill-rule="evenodd" fill="#ffd5d5" d="m119.3 76.966l-40.816 50.204 37.186 52.43 32.93-0.03 37.08-52.57-40.84-49.787-25.54-0.247z"/>
    <path id="path18" d="m132.1 137.39l7.68-12.51h-15.37l7.69 12.51z" stroke="#000" stroke-miterlimit="10" stroke-width=".56693" fill="#800000"/>
    <path id="path20" d="m148.23 124.87h-8.45l4.56-7.42h-24.49l4.56 7.42h-8.45l16.14 21.68 16.13-21.68m-16.13-16.55l13.49 29.06h-26.99l13.5-29.06z" fill="#f00" fill-rule="evenodd"/>
    <path id="path22" d="m148.23 124.87h-8.45l4.56-7.42h-24.49l4.56 7.42h-8.45l16.14 21.68 16.13-21.68m-16.13-16.55l13.49 29.06h-26.99l13.5-29.06z" stroke="#000" stroke-miterlimit="10" stroke-width=".56693" fill="none"/>
    <path id="path24" d="m132.1 94.013l22.68 43.367h-9.19l4.26 9.17h-35.51l4.26-9.17h-9.19l22.69-43.367m0 71.377l23.09-47.94h-10.85l5.61-9.12h-35.71l5.61 9.12h-10.85l23.1 47.94z" fill="#800000" fill-rule="evenodd"/>
    <path id="path26" d="m132.1 94.013l22.68 43.367h-9.19l4.26 9.17h-35.51l4.26-9.17h-9.19l22.69-43.367m0 71.377l23.09-47.94h-10.85l5.61-9.12h-35.71l5.61 9.12h-10.85l23.1 47.94z" stroke="#000" stroke-miterlimit="10" stroke-width=".56693" fill="none"/>
    <path id="path28" d="m132.1 77.213l39.79 69.347h-22.04l8.75 18.84h-53.01l8.75-18.84h-22.041l39.801-69.347m0 102.39l38.29-71.27h-20.44l8.8-14.312h-53.31l8.8 14.312h-20.441l38.301 71.27z" fill="#d40000" fill-rule="evenodd"/>
    <path id="path30" d="m132.1 77.213l39.79 69.347h-22.04l8.75 18.84h-53.01l8.75-18.84h-22.041l39.801-69.347m0 102.39l38.29-71.27h-20.44l8.8-14.312h-53.31l8.8 14.312h-20.441l38.301 71.27z" stroke="#000" stroke-miterlimit="10" stroke-width=".56693" fill="none"/>
    <path id="path32" d="m132.1 202.97l66.75-94.64h-28.46l7.69-14.312h-19.33l10.33-16.805h-73.973l10.333 16.805h-19.333l7.692 14.312h-28.465l66.766 94.64m0-141.74l69.37 85.327h-29.58l10.81 18.84h-24.1l6.59 14.2h-66.196l6.596-14.2h-24.104l10.813-18.84h-29.583l69.384-85.327z" fill="#800000" fill-rule="evenodd"/>
    <path id="path34" d="m132.1 202.97l66.75-94.64h-28.46l7.69-14.312h-19.33l10.33-16.805h-73.973l10.333 16.805h-19.333l7.692 14.312h-28.465l66.766 94.64m0-141.74l69.37 85.327h-29.58l10.81 18.84h-24.1l6.59 14.2h-66.196l6.596-14.2h-24.104l10.813-18.84h-29.583l69.384-85.327z" stroke="#000" stroke-miterlimit="10" stroke-width=".56693" fill="none"/>
    <path id="path36" d="m197.56 159.22c11.33 0.5 8.66-24.7 15.32-27.12-6.66-2.42-3.99-27.61-15.32-27.12 8.36-7.659-11.34-23.581-8.34-30.003-6.42 2.996-22.35-16.707-30.01-8.348 0.5-11.328-24.69-8.656-27.11-15.316-2.43 6.66-27.62 3.988-27.13 15.316-7.656-8.359-23.578 11.344-30 8.348 2.993 6.422-16.707 22.344-8.347 30.003-11.328-0.49-8.657 24.7-15.317 27.12 6.66 2.42 3.989 27.62 15.317 27.12-8.36 7.66 11.34 23.59 8.347 30.01 6.422-3 22.344 16.7 30 8.35-0.49 11.32 24.7 8.65 27.13 15.31 2.42-6.66 27.61-3.99 27.11-15.31 7.66 8.35 23.59-11.35 30.01-8.35-3-6.42 16.7-22.35 8.34-30.01m5.4-27.12c0-39.135-31.73-70.865-70.86-70.865-39.141 0-70.872 31.73-70.872 70.865 0 39.14 31.731 70.87 70.872 70.87 39.13 0 70.86-31.73 70.86-70.87z" fill="#00a" fill-rule="evenodd"/>
    <path id="path38" d="m197.56 159.22c11.33 0.5 8.66-24.7 15.32-27.12-6.66-2.42-3.99-27.61-15.32-27.12 8.36-7.659-11.34-23.581-8.34-30.003-6.42 2.996-22.35-16.707-30.01-8.348 0.5-11.328-24.69-8.656-27.11-15.316-2.43 6.66-27.62 3.988-27.13 15.316-7.656-8.359-23.578 11.344-30 8.348 2.993 6.422-16.707 22.344-8.347 30.003-11.328-0.49-8.657 24.7-15.317 27.12 6.66 2.42 3.989 27.62 15.317 27.12-8.36 7.66 11.34 23.59 8.347 30.01 6.422-3 22.344 16.7 30 8.35-0.49 11.32 24.7 8.65 27.13 15.31 2.42-6.66 27.61-3.99 27.11-15.31 7.66 8.35 23.59-11.35 30.01-8.35-3-6.42 16.7-22.35 8.34-30.01m5.4-27.12c0-39.135-31.73-70.865-70.86-70.865-39.141 0-70.872 31.73-70.872 70.865 0 39.14 31.731 70.87 70.872 70.87 39.13 0 70.86-31.73 70.86-70.87z" stroke="#000" stroke-miterlimit="10" stroke-width=".56693" fill="none"/>
    <path id="path40" d="m214.11 148.41c8.49-0.55 10.3-14.84 15.78-16.31-5.48-1.47-7.29-15.76-15.78-16.31 7.63-3.76 3.84-17.663 8.33-21.116-5.62 0.742-12.77-11.766-20.82-9.031 5.61-6.395-3.21-17.785-0.38-22.695-4.9 2.835-16.29-5.985-22.69-0.375 2.74-8.055-9.77-15.204-9.03-20.825-3.45 4.5-17.35 0.711-21.11 8.336-0.56-8.484-14.85-10.304-16.31-15.781-1.47 5.477-15.76 7.297-16.32 15.781-3.76-7.625-17.661-3.836-21.11-8.336 0.738 5.621-11.766 12.77-9.036 20.825-6.39-5.61-17.781 3.21-22.691 0.374 2.832 4.911-5.984 16.301-0.379 22.696-8.051-2.735-15.199 9.773-20.82 9.031 4.496 3.453 0.707 17.356 8.336 21.116-8.489 0.55-10.305 14.84-15.781 16.31 5.476 1.47 7.292 15.76 15.781 16.31-7.629 3.76-3.84 17.66-8.336 21.12 5.621-0.75 12.769 11.76 20.82 9.03-5.605 6.39 3.211 17.78 0.379 22.69 4.91-2.83 16.301 5.99 22.691 0.38-2.73 8.05 9.774 15.2 9.036 20.82 3.449-4.5 17.35-0.71 21.11-8.33 0.56 8.48 14.85 10.3 16.32 15.77 1.46-5.47 15.75-7.29 16.31-15.77 3.76 7.62 17.66 3.83 21.11 8.33-0.74-5.62 11.77-12.77 9.03-20.82 6.4 5.61 17.78-3.21 22.69-0.38-2.83-4.91 5.99-16.3 0.38-22.69 8.05 2.73 15.2-9.78 20.82-9.03-4.49-3.46-0.7-17.36-8.33-21.12m-1.23-16.31c0-44.617-36.17-80.789-80.78-80.789-44.622 0-80.794 36.172-80.794 80.789 0 44.61 36.172 80.79 80.794 80.79 44.61 0 80.78-36.18 80.78-80.79z" fill="#000080" fill-rule="evenodd"/>
    <path id="path42" d="m214.11 148.41c8.49-0.55 10.3-14.84 15.78-16.31-5.48-1.47-7.29-15.76-15.78-16.31 7.63-3.76 3.84-17.663 8.33-21.116-5.62 0.742-12.77-11.766-20.82-9.031 5.61-6.395-3.21-17.785-0.38-22.695-4.9 2.835-16.29-5.985-22.69-0.375 2.74-8.055-9.77-15.204-9.03-20.825-3.45 4.5-17.35 0.711-21.11 8.336-0.56-8.484-14.85-10.304-16.31-15.781-1.47 5.477-15.76 7.297-16.32 15.781-3.76-7.625-17.661-3.836-21.11-8.336 0.738 5.621-11.766 12.77-9.036 20.825-6.39-5.61-17.781 3.21-22.691 0.374 2.832 4.911-5.984 16.301-0.379 22.696-8.051-2.735-15.199 9.773-20.82 9.031 4.496 3.453 0.707 17.356 8.336 21.116-8.489 0.55-10.305 14.84-15.781 16.31 5.476 1.47 7.292 15.76 15.781 16.31-7.629 3.76-3.84 17.66-8.336 21.12 5.621-0.75 12.769 11.76 20.82 9.03-5.605 6.39 3.211 17.78 0.379 22.69 4.91-2.83 16.301 5.99 22.691 0.38-2.73 8.05 9.774 15.2 9.036 20.82 3.449-4.5 17.35-0.71 21.11-8.33 0.56 8.48 14.85 10.3 16.32 15.77 1.46-5.47 15.75-7.29 16.31-15.77 3.76 7.62 17.66 3.83 21.11 8.33-0.74-5.62 11.77-12.77 9.03-20.82 6.4 5.61 17.78-3.21 22.69-0.38-2.83-4.91 5.99-16.3 0.38-22.69 8.05 2.73 15.2-9.78 20.82-9.03-4.49-3.46-0.7-17.36-8.33-21.12m-1.23-16.31c0-44.617-36.17-80.789-80.78-80.789-44.622 0-80.794 36.172-80.794 80.789 0 44.61 36.172 80.79 80.794 80.79 44.61 0 80.78-36.18 80.78-80.79z" stroke="#000" stroke-miterlimit="10" stroke-width=".56693" fill="none"/>
    <path id="path46" fill-rule="evenodd" fill="url(#linearGradient2362)" d="m238.39 132.09c0-58.703-47.59-106.3-106.29-106.3-58.712 0.003-106.3 47.597-106.3 106.3-0.005 58.71 47.588 106.3 106.3 106.3 58.7 0 106.29-47.59 106.29-106.3m0 106.3v-70.86h15.59v35.43h4.26v-141.73l-4.26-0.003v35.433h-15.59v-70.867h-70.86v-15.59h35.43v-4.2495h-141.73l-0.002 4.2495h35.434v15.59h-70.867v70.867h-15.59v-35.433h-4.2535v141.73h4.2535v-35.43h15.59v70.86h70.867v15.59h-35.434v4.25h141.73v-4.25h-35.43v-15.59h70.86z"/>
    <path id="path48" d="m238.39 132.09c0-58.703-47.59-106.3-106.29-106.3-58.712 0.003-106.3 47.597-106.3 106.3-0.005 58.71 47.588 106.3 106.3 106.3 58.7 0 106.29-47.59 106.29-106.3m0 106.3v-70.86h15.59v35.43h4.26v-141.73l-4.26-0.003v35.433h-15.59v-70.867h-70.86v-15.59h35.43v-4.2495h-141.73l-0.002 4.2495h35.434v15.59h-70.867v70.867h-15.59v-35.433h-4.2535v141.73h4.2535v-35.43h15.59v70.86h70.867v15.59h-35.434v4.25h141.73v-4.25h-35.43v-15.59h70.86z" stroke="#000" stroke-miterlimit="10" stroke-width=".56693" fill="none"/>
    <path id="path16" d="m132.52 129.05c0-0.23-0.19-0.43-0.42-0.43-0.24 0-0.43 0.2-0.43 0.43s0.19 0.43 0.43 0.43c0.23 0 0.42-0.2 0.42-0.43z" stroke="#000" stroke-miterlimit="10" stroke-width=".56693" fill="none"/>
  </g>
  <metadata>
    <rdf:RDF>
      <cc:Work>
        <dc:format>image/svg+xml</dc:format>
        <dc:type rdf:resource="http://purl.org/dc/dcmitype/StillImage"/>
        <cc:license rdf:resource="http://creativecommons.org/licenses/publicdomain/"/>
        <dc:publisher>
          <cc:Agent rdf:about="http://openclipart.org/">
            <dc:title>Openclipart</dc:title>
          </cc:Agent>
        </dc:publisher>
        <dc:title>Sri Yantra</dc:title>
        <dc:date>2007-08-16T22:27:59</dc:date>
        <dc:description>Sri yantra: Mandala used in trantric meditation.&#xD;\n&#xD;\nGhastly colourscheme, please remix!</dc:description>
        <dc:source>http://openclipart.org/detail/4825/sri-yantra-by-zeimusu</dc:source>
        <dc:creator>
          <cc:Agent>
            <dc:title>zeimusu</dc:title>
          </cc:Agent>
        </dc:creator>
        <dc:subject>
          <rdf:Bag>
            <rdf:li>clip art</rdf:li>
            <rdf:li>clipart</rdf:li>
            <rdf:li>colorful</rdf:li>
            <rdf:li>hindu</rdf:li>
            <rdf:li>image</rdf:li>
            <rdf:li>mandala</rdf:li>
            <rdf:li>media</rdf:li>
            <rdf:li>mystic</rdf:li>
            <rdf:li>png</rdf:li>
            <rdf:li>public domain</rdf:li>
            <rdf:li>sri yantra</rdf:li>
            <rdf:li>svg</rdf:li>
            <rdf:li>symbol</rdf:li>
            <rdf:li>tantric</rdf:li>
          </rdf:Bag>
        </dc:subject>
      </cc:Work>
      <cc:License rdf:about="http://creativecommons.org/licenses/publicdomain/">
        <cc:permits rdf:resource="http://creativecommons.org/ns#Reproduction"/>
        <cc:permits rdf:resource="http://creativecommons.org/ns#Distribution"/>
        <cc:permits rdf:resource="http://creativecommons.org/ns#DerivativeWorks"/>
      </cc:License>
    </rdf:RDF>
  </metadata>
</svg>
